<svg width="34" height="34" viewBox="0 0 34 34" fill="none" xmlns="http://www.w3.org/2000/svg">
<g clip-path="url(#clip0_32_4)">
<path d="M21.9144 23.3286C20.3714 24.514 18.4493 25.0964 16.5079 24.9668C14.5664 24.8372 12.7388 24.0044 11.367 22.6245C9.99529 21.2445 9.1735 19.4119 9.0555 17.4697C8.9375 15.5275 9.53137 13.6089 10.726 12.073C11.9205 10.5371 13.6339 9.48925 15.5454 9.12554C17.4569 8.76184 19.4354 9.10724 21.1105 10.0971C22.7857 11.0869 24.0427 12.6534 24.6462 14.5032C25.2497 16.353 25.1584 18.3593 24.3893 20.1466M28.2784 16.9647L24.7429 20.5002L21.2073 16.9647" stroke="white" stroke-width="2" stroke-linecap="round" stroke-linejoin="round"/>
</g>
<defs>
<clipPath id="clip0_32_4">
<rect width="24" height="24" fill="white" transform="matrix(0.707107 0.707107 0.707107 -0.707107 0.029541 17)"/>
</clipPath>
</defs>
</svg>
