<svg width="42" height="42" viewBox="0 0 42 42" fill="none" xmlns="http://www.w3.org/2000/svg">
<path d="M21 0C18.2422 0 15.5115 0.556667 12.9636 1.63822C10.4158 2.71977 8.10079 4.30502 6.15076 6.30346C2.21249 10.3395 0 15.8135 0 21.5214C0 31.0338 6.027 39.1043 14.364 41.9667C15.414 42.1388 15.75 41.4717 15.75 40.8906V37.2535C9.933 38.5448 8.694 34.3696 8.694 34.3696C7.728 31.8731 6.363 31.206 6.363 31.206C4.452 29.8717 6.51 29.9147 6.51 29.9147C8.61 30.0653 9.723 32.1314 9.723 32.1314C11.55 35.4026 14.637 34.4342 15.834 33.9177C16.023 32.5188 16.569 31.5718 17.157 31.0338C12.495 30.4958 7.602 28.6449 7.602 20.4453C7.602 18.0564 8.4 16.141 9.765 14.613C9.555 14.075 8.82 11.8368 9.975 8.93137C9.975 8.93137 11.739 8.35029 15.75 11.1265C17.409 10.6531 19.215 10.4163 21 10.4163C22.785 10.4163 24.591 10.6531 26.25 11.1265C30.261 8.35029 32.025 8.93137 32.025 8.93137C33.18 11.8368 32.445 14.075 32.235 14.613C33.6 16.141 34.398 18.0564 34.398 20.4453C34.398 28.6665 29.484 30.4743 24.801 31.0123C25.557 31.6794 26.25 32.9923 26.25 34.9937V40.8906C26.25 41.4717 26.586 42.1604 27.657 41.9667C35.994 39.0828 42 31.0338 42 21.5214C42 18.6951 41.4568 15.8966 40.4015 13.2855C39.3461 10.6744 37.7993 8.30191 35.8492 6.30346C33.8992 4.30502 31.5842 2.71977 29.0364 1.63822C26.4885 0.556667 23.7578 0 21 0Z" fill="white"/>
</svg>
