<svg width="271" height="78" viewBox="0 0 271 78" fill="none" xmlns="http://www.w3.org/2000/svg">
<path d="M109.92 56V50.192H118.512C120.688 50.192 122.592 49.744 124.224 48.848C125.856 47.92 127.12 46.624 128.016 44.96C128.944 43.296 129.408 41.328 129.408 39.056C129.408 36.848 128.944 34.928 128.016 33.296C127.088 31.632 125.808 30.352 124.176 29.456C122.544 28.528 120.656 28.064 118.512 28.064H109.776V22.256H118.608C121.104 22.256 123.408 22.672 125.52 23.504C127.664 24.336 129.52 25.52 131.088 27.056C132.688 28.56 133.92 30.336 134.784 32.384C135.68 34.432 136.128 36.672 136.128 39.104C136.128 41.536 135.68 43.792 134.784 45.872C133.92 47.92 132.704 49.712 131.136 51.248C129.568 52.752 127.712 53.92 125.568 54.752C123.456 55.584 121.168 56 118.704 56H109.92ZM105.456 56V22.256H111.984V56H105.456ZM150.531 56.48C148.483 56.48 146.659 56.048 145.059 55.184C143.491 54.32 142.259 53.12 141.363 51.584C140.467 50.048 140.019 48.272 140.019 46.256V32.816H146.355V46.112C146.355 47.072 146.515 47.904 146.835 48.608C147.155 49.28 147.635 49.792 148.275 50.144C148.915 50.496 149.667 50.672 150.531 50.672C151.843 50.672 152.867 50.272 153.603 49.472C154.339 48.672 154.707 47.552 154.707 46.112V32.816H160.995V46.256C160.995 48.304 160.547 50.096 159.651 51.632C158.787 53.168 157.555 54.368 155.955 55.232C154.387 56.064 152.579 56.48 150.531 56.48ZM177.091 56.48C174.659 56.48 172.499 55.968 170.611 54.944C168.723 53.888 167.219 52.448 166.099 50.624C165.011 48.8 164.467 46.72 164.467 44.384C164.467 42.08 164.995 40.032 166.051 38.24C167.139 36.416 168.611 34.976 170.467 33.92C172.323 32.832 174.387 32.288 176.659 32.288C178.899 32.288 180.867 32.8 182.563 33.824C184.291 34.816 185.635 36.192 186.595 37.952C187.587 39.68 188.083 41.648 188.083 43.856C188.083 44.272 188.051 44.704 187.987 45.152C187.955 45.568 187.875 46.048 187.747 46.592L168.259 46.64V41.936L184.819 41.888L182.275 43.856C182.211 42.48 181.955 41.328 181.507 40.4C181.091 39.472 180.467 38.768 179.635 38.288C178.835 37.776 177.843 37.52 176.659 37.52C175.411 37.52 174.323 37.808 173.395 38.384C172.467 38.928 171.747 39.712 171.235 40.736C170.755 41.728 170.515 42.912 170.515 44.288C170.515 45.696 170.771 46.928 171.283 47.984C171.827 49.008 172.595 49.808 173.587 50.384C174.579 50.928 175.731 51.2 177.043 51.2C178.227 51.2 179.299 51.008 180.259 50.624C181.219 50.208 182.051 49.6 182.755 48.8L186.451 52.496C185.331 53.808 183.955 54.8 182.323 55.472C180.723 56.144 178.979 56.48 177.091 56.48ZM194.817 56V23.168H201.105V56H194.817ZM189.393 38.336V32.816H206.529V38.336H189.393Z" fill="white"/>
<circle cx="61.2858" cy="16.7144" r="16.7143" fill="white"/>
<path d="M5.87389 59.8929C3.3191 58.4793 3.3191 54.8065 5.87389 53.3929L27.9161 41.1971C30.3917 39.8273 33.4286 41.6178 33.4286 44.4471L33.4286 68.8387C33.4286 71.668 30.3917 73.4584 27.9161 72.0887L5.87389 59.8929Z" fill="white"/>
<rect x="44.5715" y="39.0003" width="33.4286" height="33.4286" rx="11.1429" fill="white"/>
<rect x="18.5715" width="7.42858" height="32.6512" fill="white"/>
<rect x="39.0001" y="12.6978" width="7.25582" height="33.4286" transform="rotate(90 39.0001 12.6978)" fill="white"/>
</svg>
