<svg width="163" height="78" viewBox="0 0 163 78" fill="none" xmlns="http://www.w3.org/2000/svg">
<path d="M106.68 54.4C104.92 54.4 103.347 53.9733 101.96 53.12C100.573 52.24 99.4666 51.0533 98.64 49.56C97.84 48.0667 97.44 46.3867 97.44 44.52C97.44 42.6533 97.84 40.9733 98.64 39.48C99.4666 37.9867 100.573 36.8 101.96 35.92C103.347 35.04 104.92 34.6 106.68 34.6C108.093 34.6 109.373 34.9067 110.52 35.52C111.667 36.1067 112.587 36.9333 113.28 38C114 39.04 114.4 40.2533 114.48 41.64V47.36C114.4 48.72 114.013 49.9333 113.32 51C112.627 52.0667 111.707 52.9067 110.56 53.52C109.413 54.1067 108.12 54.4 106.68 54.4ZM107.28 51C108.48 51 109.52 50.72 110.4 50.16C111.307 49.6 112.013 48.84 112.52 47.88C113.027 46.8933 113.28 45.7733 113.28 44.52C113.28 43.2133 113.013 42.08 112.48 41.12C111.973 40.16 111.267 39.4 110.36 38.84C109.48 38.28 108.44 38 107.24 38C106.04 38 104.987 38.28 104.08 38.84C103.173 39.4 102.453 40.1733 101.92 41.16C101.413 42.12 101.16 43.2267 101.16 44.48C101.16 45.76 101.413 46.8933 101.92 47.88C102.453 48.84 103.173 49.6 104.08 50.16C105.013 50.72 106.08 51 107.28 51ZM116.68 54H113.04V48.88L113.72 44.24L113.04 39.64V25.44H116.68V54ZM129.561 54.4C128.015 54.4 126.615 54.0533 125.361 53.36C124.135 52.64 123.175 51.6533 122.481 50.4C121.788 49.1467 121.441 47.6933 121.441 46.04V35H125.041V45.88C125.041 46.92 125.215 47.8267 125.561 48.6C125.935 49.3467 126.468 49.92 127.161 50.32C127.855 50.72 128.668 50.92 129.601 50.92C131.015 50.92 132.121 50.48 132.921 49.6C133.721 48.6933 134.121 47.4533 134.121 45.88V35H137.721V46.04C137.721 47.6933 137.375 49.1467 136.681 50.4C135.988 51.6533 135.028 52.64 133.801 53.36C132.601 54.0533 131.188 54.4 129.561 54.4ZM151.226 54.4C149.36 54.4 147.68 53.96 146.186 53.08C144.693 52.2 143.506 51.0133 142.626 49.52C141.746 48 141.306 46.3067 141.306 44.44C141.306 42.6 141.746 40.9467 142.626 39.48C143.506 37.9867 144.693 36.8 146.186 35.92C147.68 35.04 149.36 34.6 151.226 34.6C153.066 34.6 154.733 35.04 156.226 35.92C157.746 36.7733 158.946 37.9467 159.826 39.44C160.706 40.9333 161.146 42.6 161.146 44.44C161.146 46.3067 160.706 48 159.826 49.52C158.946 51.0133 157.746 52.2 156.226 53.08C154.733 53.96 153.066 54.4 151.226 54.4ZM151.226 50.92C152.426 50.92 153.493 50.64 154.426 50.08C155.36 49.52 156.093 48.76 156.626 47.8C157.16 46.8133 157.426 45.6933 157.426 44.44C157.426 43.2133 157.146 42.12 156.586 41.16C156.053 40.2 155.32 39.4533 154.386 38.92C153.48 38.36 152.426 38.08 151.226 38.08C150.026 38.08 148.96 38.36 148.026 38.92C147.093 39.4533 146.36 40.2 145.826 41.16C145.293 42.12 145.026 43.2133 145.026 44.44C145.026 45.6933 145.293 46.8133 145.826 47.8C146.36 48.76 147.093 49.52 148.026 50.08C148.96 50.64 150.026 50.92 151.226 50.92Z" fill="white"/>
<path fill-rule="evenodd" clip-rule="evenodd" d="M39 78C60.5391 78 78 60.5391 78 39C78 17.4609 60.5391 -1.49098e-06 39 -3.3302e-06C17.4609 -1.35472e-06 1.60381e-06 17.4609 3.49067e-06 39C1.56282e-06 60.5391 17.4609 78 39 78ZM50 39C54.9706 39 59 34.9706 59 30C59 25.0294 54.9706 21 50 21C45.0294 21 41 25.0294 41 30C41 34.9706 45.0294 39 50 39ZM20.1628 53.25C18.7872 52.4888 18.7872 50.5111 20.1628 49.75L32.0317 43.183C33.3647 42.4455 35 43.4096 35 44.933L35 58.067C35 59.5904 33.3647 60.5545 32.0317 59.817L20.1628 53.25ZM47 42C43.6863 42 41 44.6863 41 48L41 54C41 57.3137 43.6863 60 47 60L53 60C56.3137 60 59 57.3137 59 54L59 48C59 44.6863 56.3137 42 53 42L47 42ZM27 21L31 21L31 27.8373L38 27.8373L38 31.7443L31 31.7443L31 38.5814L27 38.5814L27 31.7443L20 31.7443L20 27.8373L27 27.8373L27 21Z" fill="white"/>
</svg>
