<svg width="26" height="30" viewBox="0 0 26 30" fill="none" xmlns="http://www.w3.org/2000/svg">
<path d="M21.0383 11.9334L23.3396 9.68304C24.8085 11.5214 25.7225 13.645 26 15.8479H22.7031C22.4746 14.4691 21.9033 13.122 21.0383 11.9334ZM22.7031 19.0174H26C25.7225 21.2203 24.8249 23.3439 23.3559 25.1822L21.0546 22.9319C21.9033 21.7433 22.4746 20.412 22.7031 19.0174ZM21.0546 27.4485C19.1613 28.8748 16.9579 29.7306 14.6893 30V26.7829C16.1092 26.5452 17.4802 26.0063 18.7043 25.1506L21.0546 27.4485ZM11.425 4.86529V0L18.8512 7.21078L11.425 14.2631V8.06656C6.78971 8.82726 3.26428 12.7258 3.26428 17.4326C3.26428 22.1395 6.78971 26.038 11.425 26.7987V30C4.97803 29.2235 0 23.8986 0 17.4326C0 10.9667 4.97803 5.64184 11.425 4.86529Z" fill="white"/>
</svg>
