<svg width="327" height="78" viewBox="0 0 327 78" fill="none" xmlns="http://www.w3.org/2000/svg">
<g filter="url(#filter0_d_3_553)">
<path d="M143.67 19.8281L141.514 54.2344L130.827 54.7031L130.92 36.5625L126.092 51.1875H121.967L118.264 38.1094L118.217 53.2969L107.389 53.625L107.858 21.2344L119.905 20.7656L124.686 36.2812L131.061 19.8281H143.67ZM176.938 51.9844L165.312 53.4844L163.906 48.1875H158.562L157.391 53.4844L145.438 52.3125L154.766 21.0938L167.797 20.4375L176.938 51.9844ZM163.062 41.0156L161.281 32.8594L159.547 41.0156H163.062ZM206.384 35.3906C206.384 37.5781 206.103 39.5547 205.541 41.3203C204.978 43.0703 204.189 44.6328 203.173 46.0078C202.173 47.3672 200.978 48.5391 199.588 49.5234C198.197 50.5078 196.673 51.3203 195.017 51.9609C193.361 52.5859 191.595 53.0547 189.72 53.3672C187.861 53.6641 185.947 53.8125 183.978 53.8125C183.244 53.8125 182.525 53.7969 181.822 53.7656C181.119 53.7188 180.4 53.6562 179.666 53.5781L180.322 22.125C182.041 21.5781 183.806 21.1953 185.619 20.9766C187.447 20.7422 189.259 20.625 191.056 20.625C193.291 20.625 195.345 20.9609 197.22 21.6328C199.095 22.3047 200.713 23.2734 202.072 24.5391C203.431 25.8047 204.486 27.3516 205.236 29.1797C206.002 31.0078 206.384 33.0781 206.384 35.3906ZM196.775 36.8906C196.791 36.0469 196.697 35.2344 196.494 34.4531C196.306 33.6719 195.986 32.9844 195.533 32.3906C195.095 31.7812 194.533 31.2969 193.845 30.9375C193.158 30.5625 192.338 30.3594 191.384 30.3281L190.447 44.8594C191.384 44.7188 192.236 44.4141 193.002 43.9453C193.767 43.4609 194.423 42.875 194.97 42.1875C195.533 41.4844 195.963 40.7109 196.259 39.8672C196.572 39.0078 196.744 38.125 196.775 37.2188V36.8906ZM242.591 40.6406L241.606 51.0469L221.872 52.5938C221.966 47.1406 222.067 41.7188 222.177 36.3281C222.302 30.9375 222.45 25.5156 222.622 20.0625H234.809C234.45 23.4844 234.106 26.9062 233.778 30.3281C233.45 33.7344 233.216 37.1719 233.075 40.6406C233.809 40.6719 234.536 40.6875 235.255 40.6875C235.973 40.6875 236.7 40.6875 237.434 40.6875C238.309 40.6875 239.169 40.6797 240.012 40.6641C240.856 40.6484 241.716 40.6406 242.591 40.6406ZM258.748 21L256.17 52.9219L246.28 53.4375V21.6562L258.748 21ZM290.07 45.6562C290.07 46.9531 289.828 48.0703 289.344 49.0078C288.875 49.9453 288.242 50.7422 287.445 51.3984C286.648 52.0547 285.727 52.5938 284.68 53.0156C283.648 53.4219 282.57 53.7422 281.445 53.9766C280.32 54.2109 279.188 54.3672 278.047 54.4453C276.922 54.5234 275.867 54.5625 274.883 54.5625C273.914 54.5625 272.906 54.5234 271.859 54.4453C270.828 54.3828 269.797 54.2656 268.766 54.0938C267.734 53.9219 266.719 53.6953 265.719 53.4141C264.719 53.1172 263.773 52.75 262.883 52.3125L262.836 22.125C263.711 21.7656 264.641 21.4453 265.625 21.1641C266.609 20.8672 267.609 20.625 268.625 20.4375C269.656 20.2344 270.68 20.0859 271.695 19.9922C272.711 19.8828 273.695 19.8281 274.648 19.8281C275.758 19.8281 276.875 19.8984 278 20.0391C279.141 20.1797 280.234 20.4141 281.281 20.7422C282.328 21.0703 283.305 21.5 284.211 22.0312C285.117 22.5469 285.906 23.1875 286.578 23.9531C287.266 24.7188 287.797 25.6094 288.172 26.625C288.562 27.6406 288.758 28.8125 288.758 30.1406C288.758 31.0156 288.633 31.8359 288.383 32.6016C288.133 33.3672 287.773 34.0547 287.305 34.6641C286.836 35.2734 286.266 35.7969 285.594 36.2344C284.922 36.6562 284.164 36.9688 283.32 37.1719C284.336 37.4375 285.258 37.8281 286.086 38.3438C286.93 38.8594 287.641 39.4844 288.219 40.2188C288.812 40.9531 289.266 41.7812 289.578 42.7031C289.906 43.625 290.07 44.6094 290.07 45.6562ZM278.164 32.2969C278.164 31.8438 278.07 31.4609 277.883 31.1484C277.695 30.8203 277.461 30.5547 277.18 30.3516C276.914 30.1484 276.617 30 276.289 29.9062C275.977 29.8125 275.695 29.7656 275.445 29.7656C275.133 29.7656 274.828 29.8125 274.531 29.9062C274.234 30 273.945 30.1094 273.664 30.2344L273.523 35.4375C273.883 35.4375 274.328 35.4062 274.859 35.3438C275.391 35.2812 275.898 35.1484 276.383 34.9453C276.883 34.7266 277.305 34.4141 277.648 34.0078C277.992 33.5859 278.164 33.0156 278.164 32.2969ZM274.836 39.9375C274.383 39.9375 273.945 39.9844 273.523 40.0781L273.43 45.4219C273.664 45.4688 273.891 45.5156 274.109 45.5625C274.344 45.5938 274.57 45.6094 274.789 45.6094C275.117 45.6094 275.477 45.5781 275.867 45.5156C276.258 45.4375 276.625 45.2969 276.969 45.0938C277.312 44.875 277.594 44.5859 277.812 44.2266C278.047 43.8672 278.164 43.3906 278.164 42.7969C278.164 42.2031 278.047 41.7188 277.812 41.3438C277.594 40.9688 277.32 40.6797 276.992 40.4766C276.664 40.2578 276.305 40.1172 275.914 40.0547C275.523 39.9766 275.164 39.9375 274.836 39.9375ZM317.455 41.5312C317.455 43.6719 317.08 45.5469 316.33 47.1562C315.595 48.75 314.58 50.0781 313.283 51.1406C312.002 52.2031 310.494 53 308.759 53.5312C307.041 54.0625 305.189 54.3281 303.205 54.3281C302.439 54.3281 301.595 54.2266 300.673 54.0234C299.767 53.8203 298.845 53.5703 297.908 53.2734C296.97 52.9609 296.064 52.6328 295.189 52.2891C294.33 51.9297 293.564 51.5938 292.892 51.2812L293.923 41.625C295.252 42.4219 296.72 43.0312 298.33 43.4531C299.955 43.8594 301.548 44.0625 303.111 44.0625C303.408 44.0625 303.767 44.0547 304.189 44.0391C304.611 44.0078 305.009 43.9375 305.384 43.8281C305.775 43.7031 306.103 43.5234 306.369 43.2891C306.634 43.0547 306.767 42.7188 306.767 42.2812C306.767 41.9844 306.673 41.7344 306.486 41.5312C306.298 41.3125 306.056 41.1406 305.759 41.0156C305.462 40.875 305.127 40.7734 304.752 40.7109C304.377 40.6328 304.009 40.5781 303.65 40.5469C303.291 40.5156 302.955 40.5 302.642 40.5C302.33 40.5 302.08 40.5 301.892 40.5C300.548 40.5 299.322 40.2656 298.212 39.7969C297.119 39.3281 296.173 38.6797 295.377 37.8516C294.595 37.0078 293.986 36.0156 293.548 34.875C293.111 33.7188 292.892 32.4688 292.892 31.125C292.892 29.2812 293.259 27.6328 293.994 26.1797C294.744 24.7109 295.736 23.4688 296.97 22.4531C298.22 21.4219 299.65 20.6328 301.259 20.0859C302.869 19.5391 304.533 19.2656 306.252 19.2656C307.017 19.2656 307.806 19.2969 308.619 19.3594C309.431 19.4062 310.236 19.5 311.033 19.6406C311.845 19.7812 312.634 19.9609 313.4 20.1797C314.166 20.3984 314.892 20.6719 315.58 21L314.689 30.5156C313.627 30.1562 312.509 29.8594 311.337 29.625C310.181 29.375 309.048 29.25 307.939 29.25C307.736 29.25 307.47 29.2578 307.142 29.2734C306.83 29.2734 306.494 29.2969 306.134 29.3438C305.791 29.375 305.439 29.4297 305.08 29.5078C304.72 29.5859 304.4 29.6953 304.119 29.8359C303.837 29.9609 303.611 30.1328 303.439 30.3516C303.267 30.5703 303.189 30.8281 303.205 31.125C303.22 31.4688 303.345 31.75 303.58 31.9688C303.83 32.1719 304.142 32.3359 304.517 32.4609C304.908 32.5703 305.33 32.6484 305.783 32.6953C306.252 32.7422 306.712 32.7734 307.166 32.7891C307.619 32.7891 308.041 32.7891 308.431 32.7891C308.822 32.7734 309.142 32.7812 309.392 32.8125C310.642 32.8906 311.767 33.1562 312.767 33.6094C313.767 34.0625 314.611 34.6641 315.298 35.4141C316.002 36.1641 316.533 37.0625 316.892 38.1094C317.267 39.1406 317.455 40.2812 317.455 41.5312Z" fill="#0C1E3F"/>
</g>
<circle cx="39" cy="39" r="39" fill="url(#paint0_linear_3_553)"/>
<g filter="url(#filter1_d_3_553)">
<rect x="38.2469" y="15" width="30" height="28" rx="4" transform="rotate(15 38.2469 15)" fill="white"/>
</g>
<path d="M53.8673 35.4312L52.3489 39.5132L44.2396 38.0076C44.8654 35.823 45.491 33.6518 46.1163 31.4941C46.748 29.338 47.3924 27.1719 48.0497 24.9957L52.9548 26.31C52.4411 27.6485 51.9337 28.9886 51.4326 30.3304C50.9333 31.6659 50.4682 33.0241 50.0375 34.405C50.3297 34.4968 50.6205 34.5814 50.9097 34.659C51.199 34.7365 51.4914 34.8148 51.787 34.894C52.1392 34.9884 52.4859 35.0779 52.8271 35.1626C53.1684 35.2473 53.5151 35.3368 53.8673 35.4312Z" fill="#2E2C2C"/>
<g filter="url(#filter2_dd_3_553)">
<rect x="10" y="34.7646" width="30" height="28" rx="4" transform="rotate(-15 10 34.7646)" fill="white"/>
</g>
<path d="M33.6785 34.9031L36.912 48.8985L32.7002 50.3576L30.5788 43.1027L30.3913 49.5172L28.7441 50.008L25.7091 45.2265L27.4978 51.2966L23.213 52.7162L19.5455 39.7265L24.3002 38.1057L28.0558 43.7323L28.6434 36.4037L33.6785 34.9031Z" fill="#2E2C2C"/>
<defs>
<filter id="filter0_d_3_553" x="104.389" y="19.2656" width="213.066" height="39.4375" filterUnits="userSpaceOnUse" color-interpolation-filters="sRGB">
<feFlood flood-opacity="0" result="BackgroundImageFix"/>
<feColorMatrix in="SourceAlpha" type="matrix" values="0 0 0 0 0 0 0 0 0 0 0 0 0 0 0 0 0 0 127 0" result="hardAlpha"/>
<feOffset dx="-3" dy="4"/>
<feComposite in2="hardAlpha" operator="out"/>
<feColorMatrix type="matrix" values="0 0 0 0 1 0 0 0 0 0.72 0 0 0 0 0 0 0 0 1 0"/>
<feBlend mode="normal" in2="BackgroundImageFix" result="effect1_dropShadow_3_553"/>
<feBlend mode="normal" in="SourceGraphic" in2="effect1_dropShadow_3_553" result="shape"/>
</filter>
<filter id="filter1_d_3_553" x="30.8979" y="15.898" width="35.4288" height="36.0145" filterUnits="userSpaceOnUse" color-interpolation-filters="sRGB">
<feFlood flood-opacity="0" result="BackgroundImageFix"/>
<feColorMatrix in="SourceAlpha" type="matrix" values="0 0 0 0 0 0 0 0 0 0 0 0 0 0 0 0 0 0 127 0" result="hardAlpha"/>
<feOffset dx="-1" dy="3"/>
<feComposite in2="hardAlpha" operator="out"/>
<feColorMatrix type="matrix" values="0 0 0 0 1 0 0 0 0 0.943611 0 0 0 0 0.902778 0 0 0 0.75 0"/>
<feBlend mode="normal" in2="BackgroundImageFix" result="effect1_dropShadow_3_553"/>
<feBlend mode="normal" in="SourceGraphic" in2="effect1_dropShadow_3_553" result="shape"/>
</filter>
<filter id="filter2_dd_3_553" x="10.8979" y="25.898" width="39.4287" height="38.0145" filterUnits="userSpaceOnUse" color-interpolation-filters="sRGB">
<feFlood flood-opacity="0" result="BackgroundImageFix"/>
<feColorMatrix in="SourceAlpha" type="matrix" values="0 0 0 0 0 0 0 0 0 0 0 0 0 0 0 0 0 0 127 0" result="hardAlpha"/>
<feOffset dx="1" dy="3"/>
<feComposite in2="hardAlpha" operator="out"/>
<feColorMatrix type="matrix" values="0 0 0 0 1 0 0 0 0 0.943611 0 0 0 0 0.902778 0 0 0 0.75 0"/>
<feBlend mode="normal" in2="BackgroundImageFix" result="effect1_dropShadow_3_553"/>
<feColorMatrix in="SourceAlpha" type="matrix" values="0 0 0 0 0 0 0 0 0 0 0 0 0 0 0 0 0 0 127 0" result="hardAlpha"/>
<feMorphology radius="3" operator="erode" in="SourceAlpha" result="effect2_dropShadow_3_553"/>
<feOffset dx="4" dy="-1"/>
<feGaussianBlur stdDeviation="2"/>
<feComposite in2="hardAlpha" operator="out"/>
<feColorMatrix type="matrix" values="0 0 0 0 0 0 0 0 0 0 0 0 0 0 0 0 0 0 0.25 0"/>
<feBlend mode="normal" in2="effect1_dropShadow_3_553" result="effect2_dropShadow_3_553"/>
<feBlend mode="normal" in="SourceGraphic" in2="effect2_dropShadow_3_553" result="shape"/>
</filter>
<linearGradient id="paint0_linear_3_553" x1="39" y1="0" x2="39" y2="78" gradientUnits="userSpaceOnUse">
<stop stop-color="#FFD600"/>
<stop offset="1" stop-color="#FFB800"/>
</linearGradient>
</defs>
</svg>
