<svg width="269" height="101" viewBox="0 0 269 101" fill="none" xmlns="http://www.w3.org/2000/svg">
<path d="M126.016 66V39.2284H137.298C140.154 39.2284 142.665 39.7893 144.832 40.9112C147.025 42.033 148.721 43.6011 149.919 45.6153C151.143 47.6296 151.755 49.9625 151.755 52.6142C151.755 55.2659 151.143 57.5988 149.919 59.6131C148.721 61.6273 147.025 63.1954 144.832 64.3172C142.665 65.4391 140.154 66 137.298 66H126.016ZM129.84 62.6727H137.069C139.287 62.6727 141.199 62.252 142.805 61.4106C144.437 60.5692 145.699 59.3963 146.592 57.892C147.484 56.3622 147.93 54.6029 147.93 52.6142C147.93 50.5999 147.484 48.8407 146.592 47.3363C145.699 45.832 144.437 44.6592 142.805 43.8178C141.199 42.9764 139.287 42.5557 137.069 42.5557H129.84V62.6727ZM164.191 66.2295C162.024 66.2295 160.112 65.7833 158.454 64.8909C156.822 63.9985 155.548 62.7747 154.63 61.2194C153.737 59.664 153.291 57.8793 153.291 55.865C153.291 53.8508 153.725 52.066 154.591 50.5107C155.484 48.9554 156.695 47.7443 158.225 46.8774C159.78 45.985 161.527 45.5388 163.464 45.5388C165.428 45.5388 167.161 45.9723 168.666 46.8392C170.17 47.7061 171.343 48.9299 172.184 50.5107C173.051 52.066 173.485 53.889 173.485 55.9798C173.485 56.1327 173.472 56.3112 173.446 56.5152C173.446 56.7192 173.434 56.9104 173.408 57.0889H156.16V54.45H171.496L170.004 55.3678C170.03 54.0675 169.762 52.9074 169.201 51.8875C168.64 50.8677 167.863 50.0773 166.868 49.5163C165.899 48.9299 164.765 48.6367 163.464 48.6367C162.19 48.6367 161.055 48.9299 160.061 49.5163C159.066 50.0773 158.289 50.8804 157.728 51.9258C157.167 52.9456 156.886 54.1185 156.886 55.4443V56.0563C156.886 57.4076 157.192 58.6187 157.804 59.6895C158.441 60.7349 159.321 61.5508 160.443 62.1372C161.565 62.7237 162.852 63.0169 164.306 63.0169C165.504 63.0169 166.588 62.8129 167.557 62.405C168.551 61.997 169.418 61.3851 170.157 60.5692L172.184 62.9404C171.266 64.0113 170.119 64.8271 168.742 65.3881C167.391 65.949 165.874 66.2295 164.191 66.2295ZM187.417 66.2295C185.684 66.2295 184.116 65.847 182.713 65.0821C181.337 64.2917 180.24 63.1316 179.424 61.6018C178.634 60.072 178.239 58.1597 178.239 55.865C178.239 53.5703 178.647 51.6581 179.462 50.1282C180.304 48.5984 181.413 47.4511 182.79 46.6862C184.192 45.9213 185.735 45.5388 187.417 45.5388C189.406 45.5388 191.166 45.9723 192.695 46.8392C194.225 47.7061 195.436 48.9172 196.329 50.4725C197.221 52.0023 197.667 53.7998 197.667 55.865C197.667 57.9303 197.221 59.7405 196.329 61.2958C195.436 62.8511 194.225 64.0622 192.695 64.9291C191.166 65.796 189.406 66.2295 187.417 66.2295ZM176.671 66V37.6221H180.342V51.1226L179.96 55.8268L180.189 60.5309V66H176.671ZM187.112 63.0169C188.412 63.0169 189.572 62.7237 190.592 62.1372C191.637 61.5508 192.453 60.7222 193.04 59.6513C193.651 58.5549 193.957 57.2928 193.957 55.865C193.957 54.4117 193.651 53.1624 193.04 52.117C192.453 51.0461 191.637 50.2175 190.592 49.6311C189.572 49.0446 188.412 48.7514 187.112 48.7514C185.837 48.7514 184.677 49.0446 183.631 49.6311C182.611 50.2175 181.795 51.0461 181.184 52.117C180.597 53.1624 180.304 54.4117 180.304 55.865C180.304 57.2928 180.597 58.5549 181.184 59.6513C181.795 60.7222 182.611 61.5508 183.631 62.1372C184.677 62.7237 185.837 63.0169 187.112 63.0169ZM200.828 66V45.7301H204.346V51.2374L204.002 49.8605C204.563 48.4582 205.506 47.3873 206.832 46.6479C208.158 45.9085 209.79 45.5388 211.728 45.5388V49.0956C211.575 49.0701 211.422 49.0574 211.269 49.0574C211.141 49.0574 211.014 49.0574 210.886 49.0574C208.923 49.0574 207.368 49.6438 206.22 50.8167C205.073 51.9895 204.499 53.6851 204.499 55.9033V66H200.828ZM214.341 66V45.7301H218.012V66H214.341ZM216.176 41.829C215.462 41.829 214.863 41.5996 214.379 41.1406C213.92 40.6817 213.69 40.1208 213.69 39.4578C213.69 38.7694 213.92 38.1958 214.379 37.7368C214.863 37.2779 215.462 37.0484 216.176 37.0484C216.89 37.0484 217.477 37.2779 217.936 37.7368C218.42 38.1703 218.662 38.7184 218.662 39.3814C218.662 40.0698 218.433 40.6562 217.974 41.1406C217.515 41.5996 216.916 41.829 216.176 41.829ZM232.136 66.2295C229.969 66.2295 228.056 65.7833 226.399 64.8909C224.767 63.9985 223.493 62.7747 222.575 61.2194C221.682 59.664 221.236 57.8793 221.236 55.865C221.236 53.8508 221.67 52.066 222.536 50.5107C223.429 48.9554 224.64 47.7443 226.17 46.8774C227.725 45.985 229.472 45.5388 231.409 45.5388C233.373 45.5388 235.106 45.9723 236.611 46.8392C238.115 47.7061 239.288 48.9299 240.129 50.5107C240.996 52.066 241.43 53.889 241.43 55.9798C241.43 56.1327 241.417 56.3112 241.391 56.5152C241.391 56.7192 241.379 56.9104 241.353 57.0889H224.104V54.45H239.441L237.949 55.3678C237.975 54.0675 237.707 52.9074 237.146 51.8875C236.585 50.8677 235.808 50.0773 234.813 49.5163C233.844 48.9299 232.71 48.6367 231.409 48.6367C230.134 48.6367 229 48.9299 228.005 49.5163C227.011 50.0773 226.233 50.8804 225.673 51.9258C225.112 52.9456 224.831 54.1185 224.831 55.4443V56.0563C224.831 57.4076 225.137 58.6187 225.749 59.6895C226.386 60.7349 227.266 61.5508 228.388 62.1372C229.51 62.7237 230.797 63.0169 232.251 63.0169C233.449 63.0169 234.533 62.8129 235.502 62.405C236.496 61.997 237.363 61.3851 238.102 60.5692L240.129 62.9404C239.211 64.0113 238.064 64.8271 236.687 65.3881C235.336 65.949 233.819 66.2295 232.136 66.2295ZM245.151 66V43.9325C245.151 41.9438 245.725 40.363 246.872 39.1901C248.045 37.9918 249.702 37.3926 251.844 37.3926C252.634 37.3926 253.386 37.4946 254.1 37.6986C254.84 37.877 255.464 38.1703 255.974 38.5782L254.865 41.3701C254.483 41.0641 254.049 40.8347 253.565 40.6817C253.08 40.5032 252.571 40.414 252.035 40.414C250.964 40.414 250.148 40.7199 249.587 41.3319C249.026 41.9183 248.746 42.7979 248.746 43.9708V46.6862L248.823 48.369V66H245.151ZM241.709 48.7514V45.7301H254.636V48.7514H241.709Z" fill="black"/>
<g filter="url(#filter0_d_1_15)">
<rect x="15.7803" y="12" width="84.1619" height="64.1734" rx="10.5202" fill="url(#paint0_linear_1_15)"/>
</g>
<mask id="mask0_1_15" style="mask-type:alpha" maskUnits="userSpaceOnUse" x="20" y="12" width="85" height="65">
<rect x="20.8381" y="12" width="84.1619" height="64.3591" rx="10.5202" fill="url(#paint1_linear_1_15)"/>
</mask>
<g mask="url(#mask0_1_15)">
<g filter="url(#filter1_bd_1_15)">
<path fill-rule="evenodd" clip-rule="evenodd" d="M21.457 31.8581C15.6468 31.8581 10.9367 36.5682 10.9367 42.3783V77.006C10.9367 82.8162 15.6468 87.5262 21.457 87.5262H23.8852C22.1853 90.6785 20.1499 92.6379 17.3913 94.6127C16.9239 94.9473 17.2395 95.698 17.802 95.58C26.6038 93.7351 32.3695 91.3589 36.6779 87.5262H73.2133C79.0235 87.5262 83.7335 82.8162 83.7335 77.006V42.3783C83.7335 36.5682 79.0235 31.8581 73.2133 31.8581H21.457Z" fill="url(#paint2_linear_1_15)"/>
</g>
</g>
<g filter="url(#filter2_bii_1_15)">
<path fill-rule="evenodd" clip-rule="evenodd" d="M10.5202 27.1354C4.71007 27.1354 0 31.8454 0 37.6556V80.9742C0 86.7844 4.71007 91.4944 10.5202 91.4944H14.97C12.9365 95.2655 10.4876 97.5598 7.12691 99.9252C6.65689 100.256 6.97247 101.005 7.53541 100.889C17.9381 98.7443 24.7136 95.9835 29.7598 91.4944H73.6416C79.4518 91.4944 84.1619 86.7844 84.1619 80.9742V37.6556C84.1619 31.8454 79.4518 27.1354 73.6416 27.1354H10.5202Z" fill="url(#paint3_linear_1_15)" fill-opacity="0.1"/>
</g>
<g opacity="0.5" filter="url(#filter3_b_1_15)">
<rect x="13.6763" y="45.6647" width="52.6012" height="10.5202" rx="5.26012" fill="white"/>
</g>
<g opacity="0.5" filter="url(#filter4_b_1_15)">
<rect x="13.6763" y="66.7052" width="36.8208" height="10.5202" rx="5.26012" fill="white"/>
</g>
<defs>
<filter id="filter0_d_1_15" x="10.5202" y="0.427744" width="100.994" height="81.0058" filterUnits="userSpaceOnUse" color-interpolation-filters="sRGB">
<feFlood flood-opacity="0" result="BackgroundImageFix"/>
<feColorMatrix in="SourceAlpha" type="matrix" values="0 0 0 0 0 0 0 0 0 0 0 0 0 0 0 0 0 0 127 0" result="hardAlpha"/>
<feOffset dx="3.15607" dy="-3.15607"/>
<feGaussianBlur stdDeviation="4.20809"/>
<feColorMatrix type="matrix" values="0 0 0 0 0.698039 0 0 0 0 0.968627 0 0 0 0 0.388235 0 0 0 0.2 0"/>
<feBlend mode="normal" in2="BackgroundImageFix" result="effect1_dropShadow_1_15"/>
<feBlend mode="normal" in="SourceGraphic" in2="effect1_dropShadow_1_15" result="shape"/>
</filter>
<filter id="filter1_bd_1_15" x="0.416496" y="21.3379" width="93.8373" height="84.7748" filterUnits="userSpaceOnUse" color-interpolation-filters="sRGB">
<feFlood flood-opacity="0" result="BackgroundImageFix"/>
<feGaussianBlur in="BackgroundImageFix" stdDeviation="5.26012"/>
<feComposite in2="SourceAlpha" operator="in" result="effect1_backgroundBlur_1_15"/>
<feColorMatrix in="SourceAlpha" type="matrix" values="0 0 0 0 0 0 0 0 0 0 0 0 0 0 0 0 0 0 127 0" result="hardAlpha"/>
<feOffset dx="3.15607" dy="-3.15607"/>
<feGaussianBlur stdDeviation="3.15607"/>
<feColorMatrix type="matrix" values="0 0 0 0 0.14902 0 0 0 0 0.670588 0 0 0 0 0.247059 0 0 0 0.5 0"/>
<feBlend mode="normal" in2="effect1_backgroundBlur_1_15" result="effect2_dropShadow_1_15"/>
<feBlend mode="normal" in="SourceGraphic" in2="effect2_dropShadow_1_15" result="shape"/>
</filter>
<filter id="filter2_bii_1_15" x="-10.5202" y="16.6151" width="105.202" height="94.8063" filterUnits="userSpaceOnUse" color-interpolation-filters="sRGB">
<feFlood flood-opacity="0" result="BackgroundImageFix"/>
<feGaussianBlur in="BackgroundImageFix" stdDeviation="5.26012"/>
<feComposite in2="SourceAlpha" operator="in" result="effect1_backgroundBlur_1_15"/>
<feBlend mode="normal" in="SourceGraphic" in2="effect1_backgroundBlur_1_15" result="shape"/>
<feColorMatrix in="SourceAlpha" type="matrix" values="0 0 0 0 0 0 0 0 0 0 0 0 0 0 0 0 0 0 127 0" result="hardAlpha"/>
<feOffset dy="5.26012"/>
<feGaussianBlur stdDeviation="2.63006"/>
<feComposite in2="hardAlpha" operator="arithmetic" k2="-1" k3="1"/>
<feColorMatrix type="matrix" values="0 0 0 0 1 0 0 0 0 1 0 0 0 0 1 0 0 0 0.15 0"/>
<feBlend mode="normal" in2="shape" result="effect2_innerShadow_1_15"/>
<feColorMatrix in="SourceAlpha" type="matrix" values="0 0 0 0 0 0 0 0 0 0 0 0 0 0 0 0 0 0 127 0" result="hardAlpha"/>
<feOffset dy="-5.26012"/>
<feGaussianBlur stdDeviation="2.63006"/>
<feComposite in2="hardAlpha" operator="arithmetic" k2="-1" k3="1"/>
<feColorMatrix type="matrix" values="0 0 0 0 0.14902 0 0 0 0 0.670588 0 0 0 0 0.247059 0 0 0 0.15 0"/>
<feBlend mode="normal" in2="effect2_innerShadow_1_15" result="effect3_innerShadow_1_15"/>
</filter>
<filter id="filter3_b_1_15" x="3.15607" y="35.1445" width="73.6416" height="31.5607" filterUnits="userSpaceOnUse" color-interpolation-filters="sRGB">
<feFlood flood-opacity="0" result="BackgroundImageFix"/>
<feGaussianBlur in="BackgroundImageFix" stdDeviation="5.26012"/>
<feComposite in2="SourceAlpha" operator="in" result="effect1_backgroundBlur_1_15"/>
<feBlend mode="normal" in="SourceGraphic" in2="effect1_backgroundBlur_1_15" result="shape"/>
</filter>
<filter id="filter4_b_1_15" x="3.15607" y="56.185" width="57.8613" height="31.5607" filterUnits="userSpaceOnUse" color-interpolation-filters="sRGB">
<feFlood flood-opacity="0" result="BackgroundImageFix"/>
<feGaussianBlur in="BackgroundImageFix" stdDeviation="5.26012"/>
<feComposite in2="SourceAlpha" operator="in" result="effect1_backgroundBlur_1_15"/>
<feBlend mode="normal" in="SourceGraphic" in2="effect1_backgroundBlur_1_15" result="shape"/>
</filter>
<linearGradient id="paint0_linear_1_15" x1="99.9422" y1="12" x2="58.0314" y2="76.2843" gradientUnits="userSpaceOnUse">
<stop stop-color="#B2F763"/>
<stop offset="1" stop-color="#26AB3F"/>
</linearGradient>
<linearGradient id="paint1_linear_1_15" x1="95.5" y1="20" x2="62.9191" y2="76.3591" gradientUnits="userSpaceOnUse">
<stop stop-color="#F7E863"/>
<stop offset="1" stop-color="#78AB26"/>
</linearGradient>
<linearGradient id="paint2_linear_1_15" x1="83.7335" y1="31.8581" x2="40.0854" y2="90.1654" gradientUnits="userSpaceOnUse">
<stop stop-color="#B2F763"/>
<stop offset="1" stop-color="#26AB3F"/>
</linearGradient>
<linearGradient id="paint3_linear_1_15" x1="100.499" y1="15.2586" x2="32.4165" y2="92.3682" gradientUnits="userSpaceOnUse">
<stop stop-color="#B2F763"/>
<stop offset="1" stop-color="#26AB3F"/>
</linearGradient>
</defs>
</svg>
