<svg width="65" height="75" viewBox="0 0 65 75" fill="none" xmlns="http://www.w3.org/2000/svg">
<rect y="13.562" width="56.8011" height="61.438" rx="6.69725" fill="url(#paint0_linear_2_243)"/>
<path d="M0 13.562C0 11.0012 2.07598 8.92521 4.63683 8.92521V8.92521C7.19768 8.92521 9.27365 11.0012 9.27365 13.562V75H6.69725C2.99846 75 0 72.0015 0 68.3028V13.562Z" fill="#2B3461"/>
<rect y="7.766" width="56.8011" height="60.2787" rx="6.69725" fill="#E3FFFA"/>
<rect x="16.2289" y="26.3133" width="30.1394" height="9.27365" fill="#B0F0E5"/>
<rect x="16.2289" y="41.383" width="30.1394" height="9.27365" fill="#B0F0E5"/>
<rect x="16.2289" y="55.2935" width="4.63683" height="4.63683" fill="#5FADBD"/>
<rect x="23.1841" y="55.2935" width="23.1841" height="4.63683" fill="#B0F0E5"/>
<path d="M0 54.1343H9.27365V68.0448H6.69725C2.99846 68.0448 0 65.0463 0 61.3475V54.1343Z" fill="#3B5D84"/>
<path d="M0 41.383H9.27365V54.1343H0V41.383Z" fill="#4C76A8"/>
<path d="M0 32.1093H9.27365V41.383H0V32.1093Z" fill="#63A6C3"/>
<path d="M0 21.6765H9.27365V32.1094H0V21.6765Z" fill="#A2E4ED"/>
<path d="M0 12.5628C0 9.94237 2.12428 7.81808 4.74472 7.81808H9.27365V17.0917H0V12.5628Z" fill="#AFF5FF"/>
<ellipse cx="42.3178" cy="47.0325" rx="0.977551" ry="1.66131" transform="rotate(12.9646 42.3178 47.0325)" fill="url(#paint1_linear_2_243)"/>
<path d="M62.6107 9.92455L61.6113 9.63603L60.214 12.427L61.3691 12.5239L57.0003 24.062C56.9248 24.2613 56.8775 24.4701 56.8597 24.6825L56.8011 25.3812C56.7644 25.8187 56.9781 26.2394 57.353 26.4679C57.6646 26.6578 58.0474 26.6899 58.3862 26.5546L58.4749 26.5192C58.8409 26.373 59.1247 26.0742 59.252 25.7011L63.8326 12.2685C64.1692 11.2816 63.6125 10.2138 62.6107 9.92455Z" fill="#C8DAE7"/>
<path d="M41.4784 34.703L40.5133 39.2752L40.2712 42.163C40.1743 43.3182 40.6066 45.0994 41.6648 46.3514C43.4172 48.4246 46.5588 45.4541 48.0978 43.218L48.3572 42.8411C50.1517 39.8966 51.6622 36.7881 52.8683 33.5576L62.4209 7.97145C62.827 6.88383 62.7669 5.67694 62.2549 4.63499C61.8107 3.7311 61.0578 3.01591 60.1323 2.6187L57.329 1.41553C56.7947 1.18621 56.2098 1.1003 55.6322 1.16629C54.3731 1.31009 53.3039 2.15381 52.8711 3.34484L41.4784 34.703Z" fill="url(#paint2_linear_2_243)"/>
<rect x="45.634" y="23.4187" width="10.4329" height="1.15921" transform="rotate(19.7937 45.634 23.4187)" fill="#E3FFFA"/>
<rect x="16.2289" y="19.3581" width="22.0249" height="3.47762" fill="#46557B"/>
<defs>
<linearGradient id="paint0_linear_2_243" x1="11.0125" y1="68.5018" x2="56.8014" y2="67.9331" gradientUnits="userSpaceOnUse">
<stop stop-color="#8CC8E1"/>
<stop offset="0.772717" stop-color="#8CC8E1"/>
<stop offset="0.919662" stop-color="#CCEDFA"/>
<stop offset="1" stop-color="#8CC8E1"/>
</linearGradient>
<linearGradient id="paint1_linear_2_243" x1="41.8607" y1="46.7211" x2="44.8083" y2="46.9113" gradientUnits="userSpaceOnUse">
<stop stop-color="#D9D9D9"/>
<stop offset="1" stop-color="#313131"/>
</linearGradient>
<linearGradient id="paint2_linear_2_243" x1="44.1799" y1="23.2968" x2="55.4892" y2="27.1534" gradientUnits="userSpaceOnUse">
<stop offset="0.0906973" stop-color="#4C81A8"/>
<stop offset="0.34936" stop-color="#65ACD4"/>
<stop offset="0.469228" stop-color="#407B9C"/>
<stop offset="1" stop-color="#00195B"/>
</linearGradient>
</defs>
</svg>
