<svg width="999" height="253" viewBox="0 0 999 253" fill="none" xmlns="http://www.w3.org/2000/svg">
<rect y="45.6044" width="191.003" height="206.595" rx="19.4901" fill="url(#paint0_linear_2_242)"/>
<path d="M0 45.6045C0 36.9932 6.9808 30.0124 15.592 30.0124C24.2033 30.0124 31.1841 36.9932 31.1841 45.6045V252.199H19.4901C8.726 252.199 0 243.473 0 232.709V45.6045Z" fill="#2B3461"/>
<rect y="26.1143" width="191.003" height="202.697" rx="19.4901" fill="#E3FFFA"/>
<rect x="54.5721" y="88.4826" width="101.348" height="31.1841" fill="#B0F0E5"/>
<rect x="54.5721" y="139.157" width="101.348" height="31.1841" fill="#B0F0E5"/>
<rect x="54.5721" y="185.933" width="15.592" height="15.592" fill="#5FADBD"/>
<rect x="77.9603" y="185.933" width="77.9602" height="15.592" fill="#B0F0E5"/>
<path d="M0 182.035H31.1841V228.811H19.4901C8.726 228.811 0 220.085 0 209.321V182.035Z" fill="#3B5D84"/>
<path d="M0 139.157H31.1841V182.035H0V139.157Z" fill="#4C76A8"/>
<path d="M0 107.973H31.1841V139.157H0V107.973Z" fill="#63A6C3"/>
<path d="M0 72.8906H31.1841V107.973H0V72.8906Z" fill="#A2E4ED"/>
<path d="M0 45.6044C0 34.8403 8.726 26.1143 19.4901 26.1143H31.1841V57.2984H0V45.6044Z" fill="#AFF5FF"/>
<ellipse cx="142.3" cy="158.154" rx="3.28717" ry="5.58642" transform="rotate(12.9646 142.3 158.154)" fill="url(#paint1_linear_2_242)"/>
<path d="M210.538 33.3729L207.178 32.4027L202.479 41.7879L206.363 42.1136L191.672 80.9121C191.418 81.5823 191.259 82.2846 191.199 82.9988L191.002 85.3482C190.879 86.8195 191.598 88.2342 192.858 89.0026C193.906 89.641 195.193 89.749 196.333 89.2939L196.631 89.1749C197.861 88.6833 198.816 87.6784 199.244 86.424L214.647 41.2547C215.779 37.9362 213.907 34.3454 210.538 33.3729Z" fill="#C8DAE7"/>
<path d="M139.478 116.694L136.232 132.069L135.418 141.78C135.092 145.664 136.546 151.654 140.104 155.864C145.997 162.835 156.561 152.847 161.736 145.327L162.609 144.06C168.643 134.158 173.722 123.706 177.778 112.843L209.9 26.8052C211.265 23.1479 211.063 19.0896 209.342 15.5859C207.848 12.5464 205.316 10.1415 202.204 8.80577L192.778 4.75993C190.981 3.98883 189.014 3.69994 187.072 3.92182C182.838 4.40539 179.242 7.2425 177.787 11.2475L139.478 116.694Z" fill="url(#paint2_linear_2_242)"/>
<rect x="153.451" y="78.7491" width="35.0821" height="3.89801" transform="rotate(19.7937 153.451 78.7491)" fill="#C6F5FF"/>
<rect x="54.5721" y="65.0946" width="74.0622" height="11.694" fill="#46557B"/>
<path d="M296.115 172.277V99.4803H304.643L352.793 159.278H348.321V99.4803H358.72V172.277H350.193L302.043 112.48H306.515V172.277H296.115ZM397.461 172.901C391.915 172.901 386.992 171.688 382.694 169.261C378.395 166.835 374.998 163.507 372.502 159.278C370.006 154.979 368.758 150.126 368.758 144.718C368.758 139.241 370.006 134.388 372.502 130.159C374.998 125.93 378.395 122.637 382.694 120.279C386.992 117.853 391.915 116.64 397.461 116.64C402.938 116.64 407.826 117.853 412.124 120.279C416.492 122.637 419.889 125.93 422.316 130.159C424.812 134.319 426.06 139.172 426.06 144.718C426.06 150.195 424.812 155.049 422.316 159.278C419.889 163.507 416.492 166.835 412.124 169.261C407.826 171.688 402.938 172.901 397.461 172.901ZM397.461 164.165C400.997 164.165 404.151 163.368 406.925 161.774C409.767 160.179 411.986 157.926 413.58 155.014C415.175 152.033 415.972 148.601 415.972 144.718C415.972 140.766 415.175 137.369 413.58 134.527C411.986 131.615 409.767 129.362 406.925 127.767C404.151 126.172 400.997 125.375 397.461 125.375C393.925 125.375 390.771 126.172 387.998 127.767C385.224 129.362 383.006 131.615 381.342 134.527C379.678 137.369 378.846 140.766 378.846 144.718C378.846 148.601 379.678 152.033 381.342 155.014C383.006 157.926 385.224 160.179 387.998 161.774C390.771 163.368 393.925 164.165 397.461 164.165ZM453.594 172.901C448.048 172.901 443.749 171.41 440.699 168.429C437.648 165.448 436.123 161.184 436.123 155.638V105.096H446.107V155.222C446.107 158.203 446.835 160.491 448.291 162.086C449.816 163.68 451.965 164.477 454.738 164.477C457.858 164.477 460.458 163.611 462.538 161.878L465.658 169.053C464.132 170.371 462.295 171.341 460.146 171.965C458.066 172.589 455.882 172.901 453.594 172.901ZM426.763 125.375V117.16H461.914V125.375H426.763ZM506.742 172.277V160.63L506.222 158.446V138.583C506.222 134.353 504.975 131.095 502.479 128.807C500.052 126.45 496.378 125.271 491.455 125.271C488.197 125.271 485.007 125.826 481.888 126.935C478.768 127.975 476.133 129.396 473.984 131.199L469.824 123.711C472.667 121.423 476.064 119.69 480.016 118.511C484.037 117.264 488.231 116.64 492.599 116.64C500.156 116.64 505.98 118.477 510.07 122.151C514.161 125.826 516.206 131.442 516.206 138.999V172.277H506.742ZM488.647 172.901C484.557 172.901 480.952 172.208 477.832 170.821C474.781 169.435 472.424 167.528 470.76 165.101C469.096 162.606 468.264 159.798 468.264 156.678C468.264 153.697 468.957 150.993 470.344 148.566C471.8 146.14 474.123 144.198 477.312 142.742C480.57 141.286 484.938 140.558 490.415 140.558H507.886V147.734H490.831C485.839 147.734 482.477 148.566 480.744 150.23C479.01 151.894 478.144 153.905 478.144 156.262C478.144 158.966 479.218 161.15 481.368 162.814C483.517 164.408 486.498 165.205 490.311 165.205C494.055 165.205 497.314 164.373 500.087 162.71C502.929 161.046 504.975 158.619 506.222 155.43L508.198 162.294C506.881 165.552 504.559 168.152 501.231 170.093C497.903 171.965 493.708 172.901 488.647 172.901ZM558.704 172.901C553.99 172.901 549.726 171.861 545.913 169.781C542.169 167.632 539.188 164.477 536.969 160.318C534.82 156.158 533.746 150.958 533.746 144.718C533.746 138.479 534.855 133.279 537.073 129.119C539.361 124.959 542.377 121.839 546.121 119.759C549.934 117.679 554.129 116.64 558.704 116.64C564.112 116.64 568.896 117.818 573.056 120.175C577.216 122.533 580.509 125.826 582.935 130.055C585.362 134.215 586.575 139.103 586.575 144.718C586.575 150.334 585.362 155.257 582.935 159.486C580.509 163.715 577.216 167.008 573.056 169.365C568.896 171.722 564.112 172.901 558.704 172.901ZM529.482 172.277V95.1125H539.465V131.823L538.425 144.614L539.049 157.406V172.277H529.482ZM557.872 164.165C561.408 164.165 564.563 163.368 567.336 161.774C570.179 160.179 572.397 157.926 573.992 155.014C575.656 152.033 576.488 148.601 576.488 144.718C576.488 140.766 575.656 137.369 573.992 134.527C572.397 131.615 570.179 129.362 567.336 127.767C564.563 126.172 561.408 125.375 557.872 125.375C554.406 125.375 551.251 126.172 548.409 127.767C545.636 129.362 543.417 131.615 541.753 134.527C540.159 137.369 539.361 140.766 539.361 144.718C539.361 148.601 540.159 152.033 541.753 155.014C543.417 157.926 545.636 160.179 548.409 161.774C551.251 163.368 554.406 164.165 557.872 164.165ZM595.169 172.277V95.1125H605.153V172.277H595.169ZM643.558 172.901C637.665 172.901 632.465 171.688 627.959 169.261C623.522 166.835 620.055 163.507 617.559 159.278C615.133 155.049 613.92 150.195 613.92 144.718C613.92 139.241 615.098 134.388 617.455 130.159C619.882 125.93 623.175 122.637 627.335 120.279C631.564 117.853 636.313 116.64 641.582 116.64C646.921 116.64 651.635 117.818 655.726 120.175C659.816 122.533 663.005 125.86 665.293 130.159C667.65 134.388 668.829 139.345 668.829 145.03C668.829 145.446 668.794 145.932 668.725 146.486C668.725 147.041 668.69 147.561 668.621 148.046H621.719V140.87H663.421L659.366 143.366C659.435 139.831 658.707 136.676 657.182 133.903C655.656 131.13 653.542 128.98 650.838 127.455C648.203 125.86 645.118 125.063 641.582 125.063C638.116 125.063 635.031 125.86 632.327 127.455C629.623 128.98 627.508 131.164 625.983 134.007C624.458 136.78 623.695 139.969 623.695 143.574V145.238C623.695 148.913 624.527 152.206 626.191 155.118C627.924 157.96 630.316 160.179 633.367 161.774C636.417 163.368 639.918 164.165 643.87 164.165C647.129 164.165 650.075 163.611 652.71 162.502C655.414 161.392 657.771 159.728 659.781 157.51L665.293 163.957C662.797 166.869 659.678 169.088 655.934 170.613C652.259 172.138 648.134 172.901 643.558 172.901Z" fill="black"/>
<defs>
<linearGradient id="paint0_linear_2_242" x1="37.0311" y1="230.348" x2="191.003" y2="228.435" gradientUnits="userSpaceOnUse">
<stop stop-color="#8CC8E1"/>
<stop offset="0.772717" stop-color="#8CC8E1"/>
<stop offset="0.919662" stop-color="#CCEDFA"/>
<stop offset="1" stop-color="#8CC8E1"/>
</linearGradient>
<linearGradient id="paint1_linear_2_242" x1="140.763" y1="157.107" x2="150.675" y2="157.746" gradientUnits="userSpaceOnUse">
<stop stop-color="#D9D9D9"/>
<stop offset="1" stop-color="#313131"/>
</linearGradient>
<linearGradient id="paint2_linear_2_242" x1="148.562" y1="78.339" x2="186.591" y2="91.3074" gradientUnits="userSpaceOnUse">
<stop offset="0.0906973" stop-color="#4C81A8"/>
<stop offset="0.34936" stop-color="#65ACD4"/>
<stop offset="0.469228" stop-color="#407B9C"/>
<stop offset="1" stop-color="#00195B"/>
</linearGradient>
</defs>
</svg>
