<svg width="174" height="77" viewBox="0 0 174 77" fill="none" xmlns="http://www.w3.org/2000/svg">
<rect y="13.9196" width="58.2984" height="63.0575" rx="6.69725" fill="url(#paint0_linear_3_261)"/>
<path d="M0 13.9195C0 11.2912 2.1307 9.16046 4.75905 9.16046V9.16046C7.38741 9.16046 9.51811 11.2912 9.51811 13.9195V76.977H6.69725C2.99846 76.977 0 73.9785 0 70.2797V13.9195Z" fill="#2B3461"/>
<rect y="7.97073" width="58.2984" height="61.8677" rx="6.69725" fill="#E3FFFA"/>
<rect x="16.6567" y="27.007" width="30.9338" height="9.51811" fill="#B0F0E5"/>
<rect x="16.6567" y="42.4738" width="30.9338" height="9.51811" fill="#B0F0E5"/>
<rect x="16.6567" y="56.751" width="4.75905" height="4.75905" fill="#5FADBD"/>
<rect x="23.7953" y="56.751" width="23.7953" height="4.75905" fill="#B0F0E5"/>
<path d="M0 55.5613H9.51811V69.8384H6.69725C2.99846 69.8384 0 66.84 0 63.1412V55.5613Z" fill="#3B5D84"/>
<path d="M0 42.4738H9.51811V55.5612H0V42.4738Z" fill="#4C76A8"/>
<path d="M0 32.9557H9.51811V42.4739H0V32.9557Z" fill="#63A6C3"/>
<path d="M0 22.2479H9.51811V32.9558H0V22.2479Z" fill="#A2E4ED"/>
<path d="M0 12.7689C0 10.1485 2.12428 8.02417 4.74472 8.02417H9.51811V17.5423H0V12.7689Z" fill="#AFF5FF"/>
<ellipse cx="43.4333" cy="48.2723" rx="1.00332" ry="1.7051" transform="rotate(12.9646 43.4333 48.2723)" fill="url(#paint1_linear_3_261)"/>
<path d="M64.2611 10.1862L63.2354 9.89004L61.8012 12.7546L62.9868 12.854L58.5028 24.6962C58.4254 24.9008 58.3768 25.1152 58.3585 25.3331L58.2984 26.0503C58.2607 26.4993 58.48 26.9311 58.8648 27.1656C59.1846 27.3605 59.5775 27.3935 59.9253 27.2546L60.0162 27.2182C60.3919 27.0682 60.6833 26.7615 60.8138 26.3786L65.5152 12.5919C65.8607 11.579 65.2893 10.483 64.2611 10.1862Z" fill="#C8DAE7"/>
<path d="M42.5718 35.6178L41.5813 40.3105L41.3327 43.2745C41.2333 44.4601 41.6769 46.2882 42.7631 47.5732C44.5617 49.701 47.7861 46.6523 49.3657 44.3573L49.6319 43.9704C51.4737 40.9483 53.024 37.7578 54.2619 34.4422L64.0663 8.18158C64.4831 7.06529 64.4214 5.82658 63.8959 4.75717C63.44 3.82945 62.6673 3.09541 61.7174 2.68772L58.8402 1.45284C58.2918 1.21748 57.6915 1.12931 57.0986 1.19703C55.8064 1.34463 54.7089 2.21058 54.2648 3.43301L42.5718 35.6178Z" fill="url(#paint2_linear_3_261)"/>
<rect x="46.8369" y="24.036" width="10.7079" height="1.18976" transform="rotate(19.7937 46.8369 24.036)" fill="#E3FFFA"/>
<rect x="16.6567" y="19.8683" width="22.6055" height="3.56929" fill="#46557B"/>
<path d="M86.736 58.4C86.032 58.4 85.36 58.3147 84.72 58.144C84.0587 57.9733 83.504 57.7173 83.056 57.376L84.048 55.008C84.688 55.5413 85.52 55.808 86.544 55.808C87.3547 55.808 87.9733 55.552 88.4 55.04C88.848 54.5493 89.072 53.8133 89.072 52.832V35.04H92.144V52.768C92.144 54.496 91.6747 55.8613 90.736 56.864C89.8187 57.888 88.4853 58.4 86.736 58.4ZM90.608 31.776C90.0107 31.776 89.5093 31.584 89.104 31.2C88.72 30.816 88.528 30.3467 88.528 29.792C88.528 29.216 88.72 28.736 89.104 28.352C89.5093 27.968 90.0107 27.776 90.608 27.776C91.2053 27.776 91.696 27.968 92.08 28.352C92.4853 28.7147 92.688 29.1733 92.688 29.728C92.688 30.304 92.496 30.7947 92.112 31.2C91.728 31.584 91.2267 31.776 90.608 31.776ZM103.67 52.192C101.963 52.192 100.448 51.8187 99.1258 51.072C97.8031 50.3253 96.7578 49.3013 95.9898 48C95.2218 46.6773 94.8378 45.184 94.8378 43.52C94.8378 41.8347 95.2218 40.3413 95.9898 39.04C96.7578 37.7387 97.8031 36.7253 99.1258 36C100.448 35.2533 101.963 34.88 103.67 34.88C105.355 34.88 106.859 35.2533 108.182 36C109.526 36.7253 110.571 37.7387 111.318 39.04C112.086 40.32 112.47 41.8133 112.47 43.52C112.47 45.2053 112.086 46.6987 111.318 48C110.571 49.3013 109.526 50.3253 108.182 51.072C106.859 51.8187 105.355 52.192 103.67 52.192ZM103.67 49.504C104.758 49.504 105.728 49.2587 106.582 48.768C107.456 48.2773 108.139 47.584 108.63 46.688C109.12 45.7707 109.366 44.7147 109.366 43.52C109.366 42.304 109.12 41.2587 108.63 40.384C108.139 39.488 107.456 38.7947 106.582 38.304C105.728 37.8133 104.758 37.568 103.67 37.568C102.582 37.568 101.611 37.8133 100.758 38.304C99.9044 38.7947 99.2218 39.488 98.7098 40.384C98.1978 41.2587 97.9418 42.304 97.9418 43.52C97.9418 44.7147 98.1978 45.7707 98.7098 46.688C99.2218 47.584 99.9044 48.2773 100.758 48.768C101.611 49.2587 102.582 49.504 103.67 49.504ZM122.254 52.192C120.804 52.192 119.524 51.9253 118.414 51.392C117.326 50.8587 116.473 50.048 115.854 48.96C115.257 47.8507 114.958 46.464 114.958 44.8V35.04H118.03V44.448C118.03 46.112 118.425 47.36 119.214 48.192C120.025 49.024 121.156 49.44 122.606 49.44C123.673 49.44 124.601 49.2267 125.39 48.8C126.18 48.352 126.788 47.712 127.214 46.88C127.641 46.0267 127.854 45.0027 127.854 43.808V35.04H130.926V52H128.014V47.424L128.494 48.64C127.94 49.7707 127.108 50.6453 125.998 51.264C124.889 51.8827 123.641 52.192 122.254 52.192ZM135.175 52V35.04H138.119V39.648L137.831 38.496C138.3 37.3227 139.089 36.4267 140.199 35.808C141.308 35.1893 142.673 34.88 144.295 34.88V37.856C144.167 37.8347 144.039 37.824 143.911 37.824C143.804 37.824 143.697 37.824 143.591 37.824C141.948 37.824 140.647 38.3147 139.687 39.296C138.727 40.2773 138.247 41.696 138.247 43.552V52H135.175ZM155.537 34.88C156.923 34.88 158.139 35.1467 159.185 35.68C160.251 36.2133 161.083 37.024 161.681 38.112C162.278 39.2 162.577 40.576 162.577 42.24V52H159.505V42.592C159.505 40.9493 159.099 39.712 158.289 38.88C157.499 38.048 156.379 37.632 154.929 37.632C153.841 37.632 152.891 37.8453 152.081 38.272C151.27 38.6987 150.641 39.328 150.193 40.16C149.766 40.992 149.553 42.0267 149.553 43.264V52H146.481V35.04H149.425V39.616L148.945 38.4C149.499 37.2907 150.353 36.4267 151.505 35.808C152.657 35.1893 154.001 34.88 155.537 34.88ZM166.662 52V35.04H169.734V52H166.662ZM168.198 31.776C167.601 31.776 167.099 31.584 166.694 31.2C166.31 30.816 166.118 30.3467 166.118 29.792C166.118 29.216 166.31 28.736 166.694 28.352C167.099 27.968 167.601 27.776 168.198 27.776C168.795 27.776 169.286 27.968 169.67 28.352C170.075 28.7147 170.278 29.1733 170.278 29.728C170.278 30.304 170.086 30.7947 169.702 31.2C169.318 31.584 168.817 31.776 168.198 31.776Z" fill="black"/>
<defs>
<linearGradient id="paint0_linear_3_261" x1="11.3028" y1="70.3075" x2="58.2987" y2="69.7238" gradientUnits="userSpaceOnUse">
<stop stop-color="#8CC8E1"/>
<stop offset="0.772717" stop-color="#8CC8E1"/>
<stop offset="0.919662" stop-color="#CCEDFA"/>
<stop offset="1" stop-color="#8CC8E1"/>
</linearGradient>
<linearGradient id="paint1_linear_3_261" x1="42.9641" y1="47.9526" x2="45.9894" y2="48.1479" gradientUnits="userSpaceOnUse">
<stop stop-color="#D9D9D9"/>
<stop offset="1" stop-color="#313131"/>
</linearGradient>
<linearGradient id="paint2_linear_3_261" x1="45.3444" y1="23.9109" x2="56.9519" y2="27.8691" gradientUnits="userSpaceOnUse">
<stop offset="0.0906973" stop-color="#4C81A8"/>
<stop offset="0.34936" stop-color="#65ACD4"/>
<stop offset="0.469228" stop-color="#407B9C"/>
<stop offset="1" stop-color="#00195B"/>
</linearGradient>
</defs>
</svg>
