<svg width="32" height="32" viewBox="0 0 32 32" fill="none" xmlns="http://www.w3.org/2000/svg">
<mask id="mask0_30_67" style="mask-type:alpha" maskUnits="userSpaceOnUse" x="0" y="0" width="32" height="32">
<circle cx="16" cy="16" r="16" fill="white"/>
</mask>
<g mask="url(#mask0_30_67)">
<circle cx="16" cy="16" r="16" fill="url(#paint0_linear_30_67)"/>
<path d="M13.0704 18.9832L14.1639 19.8033L13.8565 19.735C13.2822 19.6074 12.7447 19.3499 12.2853 18.9824C11.8807 18.6587 11.5455 18.2567 11.2998 17.8004L11.1932 17.6025C10.903 17.0634 10.7151 16.4752 10.6392 15.8677L10.5987 15.5441C10.528 14.9782 10.5574 14.4041 10.6857 13.8484C10.8176 13.2766 11.052 12.7335 11.3775 12.2452L11.594 11.9204C11.9934 11.3213 12.4829 10.7875 13.0451 10.3377L13.5082 9.96723L13.6493 9.86644C14.1634 9.4992 14.7367 9.22278 15.3442 9.0492L16.5246 8.78691C17.612 8.53595 18.7676 8.70098 19.7366 9.25469C19.9555 9.37976 20.1846 9.48596 20.4216 9.57211L20.5536 9.62011C21.1798 9.84783 21.7382 10.2302 22.177 10.7317C22.3428 10.9211 22.5262 11.0942 22.7249 11.2487L22.8031 11.3096C23.3333 11.7219 23.7746 12.2371 24.1008 12.8242L24.2623 13.1148L24.59 13.8112C25.0675 14.8258 25.3685 15.9144 25.48 17.0302L25.4907 17.1372C25.5459 17.6893 25.5484 18.2454 25.4982 18.798C25.3754 20.1491 24.9397 21.453 24.2256 22.6066L24.1685 22.6988C23.7951 23.302 23.3532 23.8599 22.8516 24.3615L21.6393 25.5738L21.5609 25.6444C20.7476 26.3763 19.7921 26.9327 18.7541 27.2787L17.6569 27.6014C16.9059 27.8223 16.1271 27.9344 15.3442 27.9344H14.1144C13.2751 27.9344 12.4379 27.8515 11.615 27.687L11.0739 27.5787C10.5127 27.4665 9.96558 27.2926 9.44259 27.0601L9.18842 26.9472C8.31148 26.5574 7.48129 26.07 6.71357 25.4942L5.77046 24.7869L5.18029 24.2623C4.78795 23.9136 4.43361 23.5243 4.12318 23.101L3.86882 22.7541L3.49435 22.2435C3.26353 21.9287 3.05976 21.595 2.88521 21.2459C2.11689 20.3069 1.61418 19.1684 1.44259 17.9672L1.36173 17.4821C1.32827 17.2813 1.27763 17.0837 1.21038 16.8916C1.03516 16.391 0.974081 15.8575 1.0316 15.3302L1.04915 15.1694L0.985934 14.6848C0.940736 14.3383 0.926778 13.9884 0.944229 13.6394L1.02292 12.0656L1.04915 11.541V9.96723L1.17501 8.7925C1.34996 7.15969 1.9749 5.60754 2.98018 4.30905C4.03086 2.95192 5.45219 1.92863 7.07364 1.36593C9.94706 0.368748 13.2975 -0.786865 13.377 -0.786865H17.2166C18.9102 -0.786865 20.573 -0.334073 22.0328 0.52461L24.6557 2.22953L24.6441 2.22798C24.8748 2.29216 25.0985 2.38051 25.3114 2.49182L27.4368 3.95758C28.5502 4.72546 29.5537 5.64158 30.4196 6.68062C31.7216 8.24308 32.6936 10.055 33.2555 12.0098C33.5086 12.8902 33.7049 13.5897 33.7049 13.6394C33.7049 13.7443 32.5683 14.3825 32 14.6885L30.9508 12.0656C29.9921 10.3224 28.8411 8.69218 27.5194 7.20528L27.4098 7.08199L26.314 6.1427C25.8211 5.72027 25.2982 5.33422 24.7494 4.9876C23.6437 4.28926 22.4417 3.75661 21.1817 3.40659L20.7213 3.27871L18.3606 2.88527C17.1013 2.55312 15.7726 2.59385 14.5359 3.00249L14.5341 3.0031L13.2257 3.43588C12.9682 3.57205 12.7147 3.71605 12.4655 3.86774L11.2787 4.59018L9.99698 5.55144C9.45358 5.95899 8.94721 6.41369 8.48374 6.91026C7.728 7.71999 7.09269 8.63424 6.59735 9.62492L6.35067 10.1183C5.96526 10.8891 5.67392 11.7035 5.48293 12.5439L5.44892 12.6935C5.22743 13.668 5.15696 14.6708 5.23995 15.6667L5.25394 15.8346C5.33541 16.8123 5.58047 17.7693 5.9789 18.6657C6.27593 19.3341 6.65546 19.9626 7.10863 20.5366L7.39659 20.9013C8.05759 21.7386 8.8374 22.4747 9.71131 23.0865L10.0526 23.3254C10.6918 23.7728 11.3923 24.1253 12.1324 24.372C12.9567 24.6468 13.82 24.7869 14.689 24.7869H15.0819L16.0604 24.6839C17.0603 24.5787 18.0311 24.285 18.9217 23.8186L19.0837 23.7337C19.905 23.3034 20.6334 22.7153 21.2269 22.003C21.5013 21.6738 21.745 21.3203 21.9551 20.9468L22.2121 20.49C22.6143 19.7749 22.8946 18.9978 23.0413 18.1906L23.0786 17.9858C23.2534 17.0241 23.2083 16.0354 22.9467 15.0937C22.7755 14.4773 22.5139 13.8896 22.1704 13.3499L22.1599 13.3333C21.9011 12.9266 21.5984 12.5493 21.2575 12.2084L21.1483 12.0992C20.6054 11.5563 19.9726 11.1116 19.278 10.7846L19.0916 10.697C18.4357 10.3883 17.726 10.2099 17.002 10.1718L16.8774 10.1653C16.0429 10.1214 15.2105 10.2832 14.4533 10.6366C13.9148 10.8879 13.4244 11.2314 13.0042 11.6516L12.7005 11.9552C12.3664 12.2893 12.0829 12.6704 11.8589 13.0864L11.8427 13.1165C11.4724 13.804 11.2787 14.5727 11.2787 15.3536V15.3997C11.2787 15.9695 11.3874 16.5342 11.599 17.0633C11.9042 17.8261 12.4132 18.4903 13.0704 18.9832Z" fill="url(#paint1_linear_30_67)"/>
<path d="M19.622 16.6903L19.615 16.5857C19.5673 15.8699 19.2614 15.1958 18.7541 14.6885L18.8875 15.0441C19.0594 15.5028 19.1475 15.9886 19.1475 16.4783V16.7919C19.1475 17.2198 19.0479 17.6418 18.8566 18.0245C18.6185 18.5007 18.2476 18.8977 17.7888 19.1676L17.4549 19.364C16.6816 19.8189 15.7796 20.0052 14.8894 19.8939L14.4072 19.8337C13.5664 19.7286 12.7792 19.3645 12.1546 18.792C11.7497 18.4208 11.4238 17.9717 11.1965 17.4717L11.0787 17.2126C10.95 16.9293 10.8473 16.635 10.7718 16.3332C10.5874 15.5957 10.5691 14.8264 10.7182 14.0809L10.7384 13.9801C10.8358 13.4928 10.9979 13.0206 11.2201 12.5761L11.2269 12.5625C11.4355 12.1453 11.6945 11.7553 11.998 11.4012L12.1151 11.2646C12.774 10.4958 13.5884 9.87541 14.5046 9.44426L14.6371 9.38191C15.1068 9.16088 15.6016 8.99768 16.1106 8.89587L16.3986 8.83827C17.0017 8.71765 17.6222 8.7122 18.2274 8.82223C18.5775 8.88588 18.9195 8.98766 19.2475 9.12573L19.7273 9.32776C20.7324 9.75096 21.6582 10.342 22.4651 11.0756L22.6885 11.2787L23.546 12.2681C24.1073 12.9157 24.5598 13.6499 24.8861 14.4423C25.1683 15.1276 25.353 15.8492 25.4348 16.5858L25.4511 16.7323C25.5326 17.4653 25.5226 18.2113 25.4229 18.9421C25.2635 20.1109 24.8771 21.2468 24.2876 22.2686L24.1352 22.5329C23.525 23.5905 22.7376 24.5353 21.8072 25.3261L21.6622 25.4494C20.951 26.0539 20.1591 26.5566 19.3093 26.9428C18.2478 27.4253 17.1105 27.7196 15.9482 27.8126L15.3662 27.8592C14.7404 27.9093 14.1117 27.9147 13.485 27.8756L13.3117 27.8647C11.2872 27.7382 9.32364 27.1221 7.58974 26.0694C6.90308 25.6525 6.2581 25.1705 5.6637 24.6302L5.59972 24.572C4.32652 23.4145 3.28763 22.0232 2.53957 20.4736L2.30959 19.9973C1.99448 19.3445 1.73594 18.666 1.53682 17.969C1.2133 16.8367 1.04917 15.6648 1.04917 14.4872V12.459L1.18032 9.96718L0.678315 11.105C-0.28697 13.293 -0.765545 15.6646 -0.724319 18.0556L-0.709938 18.8897C-0.674321 20.9555 -0.148747 22.9834 0.823548 24.8064C1.91592 26.8546 3.56351 28.592 5.542 29.8061C7.31372 30.8933 9.34142 31.5653 11.4129 31.7379L12.6747 31.8431C12.8801 31.8602 13.0867 31.8559 13.2912 31.8304L16.1311 31.4754L18.1213 30.9447C19.4109 30.6008 20.6448 30.0745 21.7856 29.3819C23.0785 28.5969 24.2358 27.608 25.2128 26.4533L25.4882 26.1279C26.2409 25.2384 26.8632 24.2463 27.3364 23.1815C27.9057 21.9005 28.2517 20.5316 28.3592 19.1339L28.3778 18.8916C28.4318 18.1892 28.4254 17.4834 28.3586 16.7821L28.3398 16.5847C28.2449 15.5876 28.0126 14.6085 27.6496 13.675C27.4029 13.0406 27.0971 12.4307 26.7363 11.8535L26.5392 11.538C26.1587 10.9293 25.7221 10.3574 25.2352 9.82994L25.1387 9.72537C24.6433 9.18867 24.0917 8.70675 23.4933 8.28789C22.3567 7.49229 21.0697 6.93695 19.7111 6.65586L19.4561 6.6031C18.4704 6.39916 17.4576 6.36151 16.4595 6.4917L16.4172 6.49722C15.4465 6.62384 14.5037 6.91202 13.6281 7.34983C12.9391 7.69432 12.2985 8.12804 11.7228 8.63979L11.5929 8.7553C10.6945 9.55382 9.97892 10.5367 9.49486 11.6368L9.35749 11.949C8.98119 12.8042 8.78687 13.7284 8.78687 14.6627V14.6962C8.78687 15.8096 9.06822 16.905 9.6048 17.8805L9.62064 17.9093C10.0227 18.6404 10.563 19.2863 11.2115 19.8113L11.611 20.1347C12.4991 20.8536 13.607 21.2459 14.7495 21.2459C15.6536 21.2459 16.5406 21.0002 17.3159 20.535L17.5396 20.4008C18.3282 19.9276 18.9432 19.2128 19.2934 18.3624L19.3851 18.1397C19.5739 17.6811 19.655 17.1852 19.622 16.6903Z" fill="url(#paint2_linear_30_67)"/>
</g>
<defs>
<linearGradient id="paint0_linear_30_67" x1="5.90164" y1="3.93443" x2="23.6066" y2="27.6721" gradientUnits="userSpaceOnUse">
<stop stop-color="#075CFF"/>
<stop offset="1" stop-color="#C215C5"/>
</linearGradient>
<linearGradient id="paint1_linear_30_67" x1="3.54095" y1="8.26232" x2="25.836" y2="27.1476" gradientUnits="userSpaceOnUse">
<stop stop-color="#CB27CF"/>
<stop offset="1" stop-color="#2C0028" stop-opacity="0"/>
</linearGradient>
<linearGradient id="paint2_linear_30_67" x1="28.5902" y1="15.3442" x2="0.655727" y2="16.6557" gradientUnits="userSpaceOnUse">
<stop stop-color="#CF27AA"/>
<stop offset="0.859375" stop-color="#D881F7"/>
</linearGradient>
</defs>
</svg>
