<svg width="40" height="40" viewBox="0 0 40 40" fill="none" xmlns="http://www.w3.org/2000/svg">
<circle cx="20" cy="20" r="20" fill="#8ED4B4"/>
<path d="M12 12V30H13.4545V24H28V12H12ZM13.4545 13.5H15.6364V15.75H17.8182V13.5H20V15.75H22.1818V13.5H24.3636V15.75H26.5455V18H24.3636V20.25H26.5455V22.5H24.3636V20.25H22.1818V22.5H20V20.25H17.8182V22.5H15.6364V20.25H13.4545V18H15.6364V15.75H13.4545V13.5ZM15.6364 18V20.25H17.8182V18H15.6364ZM17.8182 18H20V15.75H17.8182V18ZM20 18V20.25H22.1818V18H20ZM22.1818 18H24.3636V15.75H22.1818V18Z" fill="#035731"/>
</svg>
