<svg width="50" height="50" viewBox="0 0 50 50" fill="none" xmlns="http://www.w3.org/2000/svg">
<path d="M25 10C23.0302 10 21.0796 10.3976 19.2597 11.1702C17.4399 11.9427 15.7863 13.075 14.3934 14.5025C11.5804 17.3854 10 21.2954 10 25.3724C10 32.167 14.305 37.9317 20.26 39.9762C21.01 40.0992 21.25 39.6226 21.25 39.2076V36.6096C17.095 37.532 16.21 34.5497 16.21 34.5497C15.52 32.7665 14.545 32.29 14.545 32.29C13.18 31.3369 14.65 31.3676 14.65 31.3676C16.15 31.4752 16.945 32.951 16.945 32.951C18.25 35.2876 20.455 34.5958 21.31 34.2269C21.445 33.2277 21.835 32.5513 22.255 32.167C18.925 31.7827 15.43 30.4607 15.43 24.6038C15.43 22.8974 16 21.5293 16.975 20.4379C16.825 20.0536 16.3 18.4548 17.125 16.3795C17.125 16.3795 18.385 15.9645 21.25 17.9475C22.435 17.6093 23.725 17.4402 25 17.4402C26.275 17.4402 27.565 17.6093 28.75 17.9475C31.615 15.9645 32.875 16.3795 32.875 16.3795C33.7 18.4548 33.175 20.0536 33.025 20.4379C34 21.5293 34.57 22.8974 34.57 24.6038C34.57 30.476 31.06 31.7673 27.715 32.1516C28.255 32.6282 28.75 33.5659 28.75 34.9955V39.2076C28.75 39.6226 28.99 40.1145 29.755 39.9762C35.71 37.9163 40 32.167 40 25.3724C40 23.3537 39.612 21.3547 38.8582 19.4896C38.1044 17.6246 36.9995 15.9299 35.6066 14.5025C34.2137 13.075 32.5601 11.9427 30.7403 11.1702C28.9204 10.3976 26.9698 10 25 10Z" fill="white"/>
</svg>
