<svg width="66" height="67" viewBox="0 0 66 67" fill="none" xmlns="http://www.w3.org/2000/svg">
<path d="M1.97711e-06 48.6333C1.97711e-06 58.2602 8.06817 66.0838 17.9959 66.0838V61.7212C10.4976 61.7212 4.49898 55.9043 4.49898 48.6333H1.97711e-06ZM65.985 19.549C65.985 9.92207 57.9168 2.09839 47.9891 2.09839V6.46103C55.4874 6.46103 61.486 12.2779 61.486 19.549H65.985ZM44.9898 11.7544L58.7566 25.1332C68.4145 34.4983 68.4145 49.7094 58.7566 59.0745C49.0988 68.4397 33.4124 68.4397 23.7546 59.0745L2.54942 38.4538C1.07976 37.0868 1.07976 34.7891 2.54942 33.364C2.89769 33.0254 3.31141 32.7568 3.7669 32.5736C4.22238 32.3903 4.71068 32.2959 5.20382 32.2959C5.69696 32.2959 6.18526 32.3903 6.64075 32.5736C7.09623 32.7568 7.50996 33.0254 7.85822 33.364L21.1152 46.2193L23.2447 44.1543L3.62917 25.1332C2.15951 23.708 2.15951 21.4104 3.62917 19.9852C5.09884 18.5601 7.4983 18.5601 8.99796 19.9852L26.424 36.9995L28.4935 34.8764L7.88821 14.8373C6.41854 13.4122 6.41854 11.1145 7.88821 9.68939C9.35787 8.26426 11.7273 8.26426 13.197 9.68939L33.8623 29.7285L35.9918 27.6926L19.4956 11.7544C17.9959 10.3292 17.9959 8.03159 19.4956 6.60645C20.9952 5.18132 23.3347 5.18132 24.8044 6.60645L47.6592 28.7687C45.8696 31.0071 44.983 33.8013 45.1651 36.6281C45.3473 39.4548 46.5859 42.1203 48.6489 44.1252L50.7785 42.0602C49.0934 40.4242 48.147 38.2066 48.147 35.8943C48.147 33.5821 49.0934 31.3645 50.7785 29.7285L51.8282 28.7105L39.621 16.8732C38.1513 15.4481 38.1513 13.1504 39.621 11.7253C41.1207 10.3292 43.4901 10.3292 44.9898 11.7544Z" fill="url(#paint0_linear_58_4)"/>
<path d="M1.97711e-06 46.5349C1.97711e-06 56.1618 8.06817 63.9855 17.9959 63.9855V59.6228C10.4976 59.6228 4.49898 53.806 4.49898 46.5349H1.97711e-06ZM65.985 17.4506C65.985 7.82368 57.9168 0 47.9891 0V4.36264C55.4874 4.36264 61.486 10.1795 61.486 17.4506H65.985ZM44.9898 9.65599L58.7566 23.0348C68.4145 32.3999 68.4145 47.611 58.7566 56.9761C49.0988 66.3413 33.4124 66.3413 23.7546 56.9761L2.54942 36.3554C1.07976 34.9884 1.07976 32.6908 2.54942 31.2656C2.89769 30.9271 3.31141 30.6584 3.7669 30.4752C4.22238 30.2919 4.71068 30.1975 5.20382 30.1975C5.69696 30.1975 6.18526 30.2919 6.64075 30.4752C7.09623 30.6584 7.50996 30.9271 7.85822 31.2656L21.1152 44.1209L23.2447 42.0559L3.62917 23.0348C2.15951 21.6096 2.15951 19.312 3.62917 17.8868C5.09884 16.4617 7.4983 16.4617 8.99796 17.8868L26.424 34.9012L28.4935 32.778L7.88821 12.7389C6.41854 11.3138 6.41854 9.01613 7.88821 7.591C9.35787 6.16587 11.7273 6.16587 13.197 7.591L33.8623 27.6301L35.9918 25.5942L19.4956 9.65599C17.9959 8.23086 17.9959 5.9332 19.4956 4.50807C20.9952 3.08294 23.3347 3.08294 24.8044 4.50807L47.6592 26.6703C45.8696 28.9087 44.983 31.7029 45.1651 34.5297C45.3473 37.3565 46.5859 40.0219 48.6489 42.0268L50.7785 39.9618C49.0934 38.3258 48.147 36.1082 48.147 33.796C48.147 31.4837 49.0934 29.2661 50.7785 27.6301L51.8282 26.6121L39.621 14.7748C38.1513 13.3497 38.1513 11.052 39.621 9.6269C41.1207 8.23086 43.4901 8.23086 44.9898 9.65599Z" fill="url(#paint1_linear_58_4)"/>
<defs>
<linearGradient id="paint0_linear_58_4" x1="3.2459" y1="57.7049" x2="65.9997" y2="57.1471" gradientUnits="userSpaceOnUse">
<stop stop-color="#988338"/>
<stop offset="0.364583" stop-color="#F2D983"/>
<stop offset="0.505208" stop-color="#C6AC52"/>
<stop offset="0.697917" stop-color="#A78F3A"/>
<stop offset="0.891482" stop-color="#F2D983"/>
<stop offset="1" stop-color="#A9913D"/>
</linearGradient>
<linearGradient id="paint1_linear_58_4" x1="-2.39945" y1="55.0663" x2="71.6614" y2="-8.44577" gradientUnits="userSpaceOnUse">
<stop stop-color="#FAC200"/>
<stop offset="0.453125" stop-color="#FFE485"/>
<stop offset="1" stop-color="#FFC600"/>
</linearGradient>
</defs>
</svg>
