<svg width="40" height="40" viewBox="0 0 40 40" fill="none" xmlns="http://www.w3.org/2000/svg">
<circle cx="20" cy="20" r="20" fill="#F6D32D"/>
<path d="M22.6667 17.8756V13.7778H23.5556V12H16.4444V13.7778H17.3333V17.8756L12.1243 26.6578C12.0443 26.7927 12.0014 26.9465 12 27.1033C11.9987 27.2602 12.0388 27.4147 12.1165 27.551C12.1941 27.6874 12.3065 27.8007 12.4421 27.8796C12.5778 27.9584 12.7319 28 12.8888 28H27.1112C27.2681 28 27.4222 27.9584 27.5579 27.8796C27.6935 27.8007 27.8059 27.6874 27.8835 27.551C27.9612 27.4147 28.0013 27.2602 28 27.1033C27.9986 26.9465 27.9557 26.7927 27.8757 26.6578L22.6667 17.8756ZM18.9333 18.6578C19.0487 18.5039 19.1111 18.3168 19.1111 18.1244V13.7778H20.8889V18.1244C20.889 18.284 20.9319 18.4406 21.0134 18.5778L22.9156 21.7778H17.0844L18.9333 18.6578Z" fill="#433400"/>
</svg>
