<svg width="12" height="12" viewBox="0 0 12 12" fill="none" xmlns="http://www.w3.org/2000/svg">
<path d="M9 6.678V8.8962H7.7142V6.8262C7.7142 6.3066 7.5282 5.952 7.0626 5.952C6.7074 5.952 6.4956 6.1908 6.4026 6.4224C6.369 6.5052 6.36 6.6204 6.36 6.7356V8.8962H5.0736C5.0736 8.8962 5.091 5.391 5.0736 5.028H6.36V5.5758L6.3516 5.5884H6.36V5.5758C6.531 5.3118 6.8358 4.9368 7.5192 4.9368C8.3652 4.9368 9 5.49 9 6.678ZM3.7278 3.1626C3.288 3.1626 3 3.4518 3 3.831C3 4.203 3.2796 4.5 3.711 4.5H3.7194C4.1682 4.5 4.4472 4.2024 4.4472 3.831C4.4388 3.4518 4.1682 3.1626 3.7278 3.1626ZM3.0762 8.8962H4.3626V5.028H3.0762V8.8962Z" fill="white"/>
<path d="M2.4 1.2C2.08174 1.2 1.77652 1.32643 1.55147 1.55147C1.32643 1.77652 1.2 2.08174 1.2 2.4V9.6C1.2 9.91826 1.32643 10.2235 1.55147 10.4485C1.77652 10.6736 2.08174 10.8 2.4 10.8H9.6C9.91826 10.8 10.2235 10.6736 10.4485 10.4485C10.6736 10.2235 10.8 9.91826 10.8 9.6V2.4C10.8 2.08174 10.6736 1.77652 10.4485 1.55147C10.2235 1.32643 9.91826 1.2 9.6 1.2H2.4ZM2.4 0H9.6C10.2365 0 10.847 0.252856 11.2971 0.702944C11.7471 1.15303 12 1.76348 12 2.4V9.6C12 10.2365 11.7471 10.847 11.2971 11.2971C10.847 11.7471 10.2365 12 9.6 12H2.4C1.76348 12 1.15303 11.7471 0.702944 11.2971C0.252856 10.847 0 10.2365 0 9.6V2.4C0 1.76348 0.252856 1.15303 0.702944 0.702944C1.15303 0.252856 1.76348 0 2.4 0Z" fill="white"/>
</svg>
