<svg width="166" height="56" viewBox="0 0 166 56" fill="none" xmlns="http://www.w3.org/2000/svg">
<path d="M67.032 22.968L67.06 21.204L76.72 12.384H78.512L72.1 18.404L71.26 19.104L67.032 22.968ZM65.968 27V6.224H67.368V27H65.968ZM77.392 27L71.008 18.992L71.96 17.956L79.128 27H77.392ZM86.6707 27.112C85.1961 27.112 83.8894 26.7947 82.7507 26.16C81.6307 25.5253 80.7441 24.648 80.0907 23.528C79.4561 22.408 79.1387 21.1293 79.1387 19.692C79.1387 18.236 79.4374 16.9573 80.0347 15.856C80.6507 14.736 81.4907 13.8587 82.5547 13.224C83.6187 12.5893 84.8134 12.272 86.1387 12.272C87.4641 12.272 88.6494 12.58 89.6947 13.196C90.7587 13.812 91.5894 14.68 92.1867 15.8C92.8027 16.9013 93.1107 18.18 93.1107 19.636C93.1107 19.692 93.1014 19.7573 93.0827 19.832C93.0827 19.888 93.0827 19.9533 93.0827 20.028H80.1747V18.936H92.3267L91.7667 19.468C91.7854 18.3293 91.5427 17.312 91.0387 16.416C90.5534 15.5013 89.8907 14.792 89.0507 14.288C88.2107 13.7653 87.2401 13.504 86.1387 13.504C85.0561 13.504 84.0854 13.7653 83.2267 14.288C82.3867 14.792 81.7241 15.5013 81.2387 16.416C80.7534 17.312 80.5107 18.3387 80.5107 19.496V19.748C80.5107 20.9427 80.7721 22.0067 81.2947 22.94C81.8361 23.8547 82.5734 24.5733 83.5067 25.096C84.4401 25.6 85.5041 25.852 86.6987 25.852C87.6321 25.852 88.5001 25.684 89.3027 25.348C90.1241 25.012 90.8147 24.4987 91.3747 23.808L92.1867 24.732C91.5521 25.516 90.7494 26.1133 89.7787 26.524C88.8267 26.916 87.7907 27.112 86.6707 27.112ZM103.462 12.272C104.656 12.272 105.692 12.5053 106.57 12.972C107.466 13.42 108.156 14.1107 108.642 15.044C109.146 15.9587 109.398 17.0973 109.398 18.46V27H107.998V18.572C107.998 16.9293 107.578 15.6787 106.738 14.82C105.916 13.9613 104.759 13.532 103.266 13.532C102.127 13.532 101.138 13.7653 100.298 14.232C99.4578 14.6987 98.8138 15.352 98.3658 16.192C97.9364 17.032 97.7218 18.04 97.7218 19.216V27H96.3218V12.384H97.6658V16.444L97.4698 15.996C97.9178 14.8387 98.6551 13.9333 99.6818 13.28C100.708 12.608 101.968 12.272 103.462 12.272ZM118.298 27.112C117.01 27.112 116.02 26.7573 115.33 26.048C114.658 25.3387 114.322 24.368 114.322 23.136V9.192H115.722V22.996C115.722 23.9293 115.955 24.648 116.422 25.152C116.888 25.656 117.56 25.908 118.438 25.908C119.352 25.908 120.108 25.6373 120.706 25.096L121.294 26.076C120.92 26.4307 120.463 26.692 119.922 26.86C119.399 27.028 118.858 27.112 118.298 27.112ZM111.634 13.588V12.384H120.37V13.588H111.634ZM122.734 12.384L123.826 7.652L123.966 8.464C123.611 8.464 123.313 8.352 123.07 8.128C122.846 7.904 122.734 7.624 122.734 7.288C122.734 6.952 122.846 6.672 123.07 6.448C123.313 6.224 123.593 6.112 123.91 6.112C124.265 6.112 124.545 6.23333 124.75 6.476C124.974 6.7 125.086 6.97067 125.086 7.288C125.086 7.41867 125.077 7.54933 125.058 7.68C125.039 7.81067 125.011 7.94133 124.974 8.072C124.937 8.20267 124.89 8.37067 124.834 8.576L123.742 12.384H122.734ZM131.822 27.112C130.608 27.112 129.47 26.9347 128.406 26.58C127.36 26.2253 126.548 25.7773 125.97 25.236L126.614 24.116C127.174 24.6013 127.92 25.0213 128.854 25.376C129.787 25.712 130.795 25.88 131.878 25.88C133.408 25.88 134.51 25.628 135.182 25.124C135.854 24.62 136.19 23.9573 136.19 23.136C136.19 22.5387 136.012 22.072 135.658 21.736C135.322 21.3813 134.864 21.1107 134.286 20.924C133.707 20.7373 133.072 20.588 132.382 20.476C131.691 20.3453 131 20.2053 130.31 20.056C129.619 19.9067 128.984 19.692 128.406 19.412C127.827 19.132 127.36 18.7493 127.006 18.264C126.67 17.76 126.502 17.0973 126.502 16.276C126.502 15.5293 126.707 14.8573 127.118 14.26C127.528 13.6627 128.144 13.1867 128.966 12.832C129.787 12.4587 130.814 12.272 132.046 12.272C132.96 12.272 133.875 12.4027 134.79 12.664C135.723 12.9253 136.479 13.2707 137.058 13.7L136.414 14.82C135.798 14.3533 135.107 14.0173 134.342 13.812C133.576 13.6067 132.802 13.504 132.018 13.504C130.599 13.504 129.554 13.7653 128.882 14.288C128.228 14.8107 127.902 15.464 127.902 16.248C127.902 16.864 128.07 17.3587 128.406 17.732C128.76 18.0867 129.227 18.3667 129.806 18.572C130.384 18.7587 131.019 18.9173 131.71 19.048C132.4 19.16 133.091 19.2907 133.782 19.44C134.472 19.5893 135.107 19.804 135.686 20.084C136.264 20.3453 136.722 20.7187 137.058 21.204C137.412 21.6707 137.59 22.3053 137.59 23.108C137.59 23.9107 137.366 24.6107 136.918 25.208C136.488 25.8053 135.844 26.272 134.986 26.608C134.127 26.944 133.072 27.112 131.822 27.112Z" fill="white"/>
<path d="M75.256 50.252C73.968 50.252 72.8667 49.972 71.952 49.412C71.0373 48.8333 70.3373 47.9747 69.852 46.836C69.3853 45.6787 69.152 44.204 69.152 42.412C69.152 40.6013 69.376 39.1267 69.824 37.988C70.272 36.8307 70.944 35.972 71.84 35.412C72.7547 34.852 73.8933 34.572 75.256 34.572C76.6373 34.572 77.888 34.8987 79.008 35.552C80.1467 36.1867 81.0427 37.092 81.696 38.268C82.368 39.4253 82.704 40.8067 82.704 42.412C82.704 44.0173 82.368 45.408 81.696 46.584C81.0427 47.76 80.1467 48.6653 79.008 49.3C77.888 49.9347 76.6373 50.252 75.256 50.252ZM65.708 55.432V34.824H70.776V37.4L70.748 42.412L71.028 47.452V55.432H65.708ZM74.136 46.024C74.7333 46.024 75.2653 45.884 75.732 45.604C76.2173 45.324 76.6 44.9133 76.88 44.372C77.1787 43.8307 77.328 43.1773 77.328 42.412C77.328 41.6467 77.1787 40.9933 76.88 40.452C76.6 39.9107 76.2173 39.5 75.732 39.22C75.2653 38.94 74.7333 38.8 74.136 38.8C73.5387 38.8 72.9973 38.94 72.512 39.22C72.0453 39.5 71.6627 39.9107 71.364 40.452C71.084 40.9933 70.944 41.6467 70.944 42.412C70.944 43.1773 71.084 43.8307 71.364 44.372C71.6627 44.9133 72.0453 45.324 72.512 45.604C72.9973 45.884 73.5387 46.024 74.136 46.024ZM92.2328 50.252C90.5714 50.252 89.0968 49.916 87.8088 49.244C86.5208 48.572 85.5034 47.648 84.7568 46.472C84.0288 45.2773 83.6648 43.9147 83.6648 42.384C83.6648 40.8533 84.0288 39.5 84.7568 38.324C85.5034 37.148 86.5208 36.2333 87.8088 35.58C89.0968 34.908 90.5714 34.572 92.2328 34.572C93.8941 34.572 95.3688 34.908 96.6568 35.58C97.9634 36.2333 98.9808 37.148 99.7088 38.324C100.437 39.5 100.801 40.8533 100.801 42.384C100.801 43.9147 100.437 45.2773 99.7088 46.472C98.9808 47.648 97.9634 48.572 96.6568 49.244C95.3688 49.916 93.8941 50.252 92.2328 50.252ZM92.2328 46.024C92.8488 46.024 93.3901 45.884 93.8568 45.604C94.3421 45.324 94.7248 44.9133 95.0048 44.372C95.2848 43.812 95.4248 43.1493 95.4248 42.384C95.4248 41.6187 95.2848 40.9747 95.0048 40.452C94.7248 39.9107 94.3421 39.5 93.8568 39.22C93.3901 38.94 92.8488 38.8 92.2328 38.8C91.6354 38.8 91.0941 38.94 90.6088 39.22C90.1421 39.5 89.7594 39.9107 89.4608 40.452C89.1808 40.9747 89.0408 41.6187 89.0408 42.384C89.0408 43.1493 89.1808 43.812 89.4608 44.372C89.7594 44.9133 90.1421 45.324 90.6088 45.604C91.0941 45.884 91.6354 46.024 92.2328 46.024ZM102.705 50V34.824H107.773V39.248L107.017 37.988C107.465 36.8493 108.193 36 109.201 35.44C110.209 34.8613 111.432 34.572 112.869 34.572V39.36C112.627 39.3227 112.412 39.304 112.225 39.304C112.057 39.2853 111.871 39.276 111.665 39.276C110.583 39.276 109.705 39.5747 109.033 40.172C108.361 40.7507 108.025 41.7027 108.025 43.028V50H102.705ZM121.745 50.252C119.804 50.252 118.292 49.776 117.209 48.824C116.127 47.8533 115.585 46.3973 115.585 44.456V31.436H120.905V44.4C120.905 44.9413 121.055 45.3707 121.353 45.688C121.652 45.9867 122.035 46.136 122.501 46.136C123.136 46.136 123.677 45.9773 124.125 45.66L125.441 49.384C124.993 49.6827 124.443 49.8973 123.789 50.028C123.136 50.1773 122.455 50.252 121.745 50.252ZM113.373 39.36V35.384H124.377V39.36H113.373ZM136.201 50V47.172L135.837 46.472V41.264C135.837 40.424 135.576 39.78 135.053 39.332C134.549 38.8653 133.737 38.632 132.617 38.632C131.889 38.632 131.152 38.7533 130.405 38.996C129.658 39.22 129.024 39.5373 128.501 39.948L126.709 36.336C127.568 35.776 128.594 35.3467 129.789 35.048C131.002 34.7307 132.206 34.572 133.401 34.572C135.865 34.572 137.769 35.1413 139.113 36.28C140.476 37.4 141.157 39.164 141.157 41.572V50H136.201ZM131.721 50.252C130.508 50.252 129.481 50.0467 128.641 49.636C127.801 49.2253 127.157 48.6653 126.709 47.956C126.28 47.2467 126.065 46.4533 126.065 45.576C126.065 44.6427 126.298 43.84 126.765 43.168C127.25 42.4773 127.988 41.9547 128.977 41.6C129.966 41.2267 131.245 41.04 132.813 41.04H136.397V43.812H133.541C132.682 43.812 132.076 43.952 131.721 44.232C131.385 44.512 131.217 44.8853 131.217 45.352C131.217 45.8187 131.394 46.192 131.749 46.472C132.104 46.752 132.589 46.892 133.205 46.892C133.784 46.892 134.306 46.752 134.773 46.472C135.258 46.1733 135.613 45.7253 135.837 45.128L136.565 47.088C136.285 48.1333 135.734 48.9267 134.913 49.468C134.11 49.9907 133.046 50.252 131.721 50.252ZM143.955 50V29.224H149.275V50H143.955Z" fill="white"/>
<mask id="mask0_30_59" style="mask-type:alpha" maskUnits="userSpaceOnUse" x="0" y="3" width="52" height="52">
<circle cx="26" cy="29" r="26" fill="white"/>
</mask>
<g mask="url(#mask0_30_59)">
<circle cx="26" cy="29" r="26" fill="url(#paint0_linear_30_59)"/>
<path d="M21.2394 33.8476L23.0163 35.1803L22.5168 35.0693C21.5835 34.8619 20.7102 34.4436 19.9636 33.8464C19.3061 33.3203 18.7614 32.667 18.3622 31.9256L18.189 31.6041C17.7173 30.7281 17.4121 29.7722 17.2887 28.785L17.2229 28.2592C17.108 27.3395 17.1558 26.4067 17.3642 25.5036C17.5786 24.5744 17.9595 23.6918 18.4884 22.8984L18.8403 22.3707C19.4893 21.3972 20.2847 20.5296 21.1983 19.7987L21.9508 19.1967L22.1801 19.0329C23.0156 18.4362 23.9471 17.987 24.9344 17.7049L26.8524 17.2787C28.6195 16.8709 30.4974 17.1391 32.072 18.0388C32.4277 18.2421 32.8001 18.4146 33.185 18.5546L33.3996 18.6327C34.4172 19.0027 35.3247 19.624 36.0377 20.4389C36.307 20.7467 36.6051 21.028 36.9279 21.2791L37.0551 21.378C37.9165 22.0481 38.6338 22.8852 39.1638 23.8392L39.4262 24.3115L39.9587 25.4432C40.7346 27.0919 41.2237 28.8609 41.4051 30.6741L41.4225 30.8479C41.5122 31.7451 41.5162 32.6487 41.4346 33.5467C41.235 35.7422 40.527 37.8611 39.3666 39.7356L39.2738 39.8856C38.667 40.8657 37.949 41.7723 37.1339 42.5874L35.1639 44.5574L35.0364 44.6721C33.7148 45.8615 32.1621 46.7656 30.4754 47.3279L28.6925 47.8522C27.4721 48.2112 26.2065 48.3934 24.9344 48.3934H22.9359C21.5721 48.3934 20.2116 48.2587 18.8743 47.9913L17.995 47.8154C17.0831 47.633 16.1941 47.3504 15.3442 46.9727L14.9312 46.7891C13.5062 46.1558 12.1571 45.3638 10.9096 44.4281L9.377 43.2787L8.41799 42.4262C7.78043 41.8595 7.20463 41.2269 6.70018 40.5391L6.28684 39.9754L5.67833 39.1456C5.30325 38.6342 4.97213 38.0919 4.68848 37.5246C3.43995 35.9986 2.62305 34.1486 2.34422 32.1967L2.21283 31.4084C2.15845 31.0821 2.07616 30.7611 1.96688 30.4488C1.68215 29.6353 1.58289 28.7684 1.67636 27.9116L1.70487 27.6503L1.60215 26.8628C1.52871 26.2997 1.50603 25.7311 1.53438 25.1639L1.66225 22.6066L1.70487 21.7541V19.1967L1.90941 17.2878C2.19369 14.6345 3.20922 12.1122 4.8428 10.0022C6.55016 7.79684 8.85982 6.13399 11.4947 5.2196C16.164 3.59919 21.6084 1.72131 21.7377 1.72131H27.9771C30.7291 1.72131 33.4311 2.4571 35.8032 3.85246L40.0655 6.62295L40.0466 6.62044C40.4215 6.72472 40.7851 6.8683 41.1311 7.04918L44.5848 9.43103C46.3941 10.6788 48.0248 12.1675 49.4318 13.856C51.5477 16.395 53.1271 19.3394 54.0402 22.5158C54.4515 23.9465 54.7704 25.0832 54.7704 25.1639C54.7704 25.3344 52.9234 26.3716 51.9999 26.8689L50.295 22.6066C48.7371 19.7739 46.8668 17.1248 44.719 14.7085L44.5409 14.5082L42.7602 12.9819C41.9593 12.2954 41.1096 11.6681 40.2178 11.1048C38.4211 9.97002 36.4678 9.10446 34.4202 8.53568L33.6721 8.32787L29.836 7.68853C27.7894 7.14873 25.63 7.21499 23.6203 7.87921L23.6179 7.88001L21.4917 8.58328C21.0734 8.80455 20.6614 9.03855 20.2565 9.28504L18.3278 10.459L16.2451 12.0211C15.3621 12.6833 14.5392 13.4222 13.7861 14.2291C12.558 15.5449 11.5256 17.0306 10.7207 18.6405L10.3199 19.4422C9.69356 20.6948 9.22013 22.0181 8.90976 23.3837L8.8545 23.6269C8.49459 25.2105 8.38006 26.84 8.51493 28.4584L8.53767 28.7313C8.67006 30.3199 9.06828 31.875 9.71572 33.3318C10.1984 34.4178 10.8151 35.4391 11.5515 36.3719L12.0195 36.9646C13.0936 38.3252 14.3608 39.5214 15.7809 40.5155L16.3356 40.9038C17.3741 41.6308 18.5124 42.2036 19.7151 42.6045C21.0547 43.051 22.4576 43.2787 23.8696 43.2787H24.5082L26.0982 43.1113C27.7229 42.9403 29.3005 42.4632 30.7477 41.7051L31.011 41.5672C32.3457 40.8681 33.5293 39.9124 34.4938 38.7549C34.9396 38.22 35.3357 37.6455 35.677 37.0385L36.0946 36.2962C36.7482 35.1342 37.2037 33.8714 37.4422 32.5597L37.5027 32.2269C37.7868 30.6642 37.7136 29.0575 37.2885 27.5272C37.0102 26.5255 36.5851 25.5706 36.027 24.6935L36.0099 24.6667C35.5892 24.0056 35.0975 23.3926 34.5434 22.8386L34.366 22.6611C33.4838 21.779 32.4555 21.0562 31.3267 20.525L31.0239 20.3826C29.958 19.8809 28.8048 19.5911 27.6283 19.5292L27.4258 19.5185C26.0698 19.4472 24.7171 19.7102 23.4866 20.2844C22.6115 20.6927 21.8146 21.2509 21.1318 21.9338L20.6383 22.4272C20.0954 22.9701 19.6347 23.5893 19.2707 24.2653L19.2443 24.3143C18.6427 25.4315 18.3278 26.6806 18.3278 27.9496V28.0244C18.3278 28.9505 18.5045 29.868 18.8484 30.7278C19.3443 31.9673 20.1714 33.0466 21.2394 33.8476Z" fill="url(#paint1_linear_30_59)"/>
<path d="M31.8857 30.1218L31.8744 29.9519C31.7968 28.7887 31.2997 27.6932 30.4754 26.8688L30.6921 27.4468C30.9716 28.192 31.1148 28.9814 31.1148 29.7774V30.2869C31.1148 30.9823 30.9529 31.668 30.6419 32.2899C30.255 33.0637 29.6524 33.7088 28.9068 34.1474L28.3642 34.4666C27.1076 35.2057 25.6418 35.5085 24.1953 35.3277L23.4117 35.2297C22.0455 35.0589 20.7662 34.4674 19.7512 33.537C19.0932 32.9338 18.5637 32.2041 18.1944 31.3915L18.003 30.9705C17.7938 30.5102 17.6268 30.0319 17.5042 29.5415C17.2046 28.343 17.1749 27.0929 17.4171 25.8815L17.4499 25.7178C17.6083 24.9258 17.8715 24.1586 18.2327 23.4362L18.2437 23.4142C18.5827 22.7362 19.0035 22.1024 19.4968 21.5269L19.687 21.305C20.7578 20.0557 22.0812 19.0476 23.57 18.347L23.7853 18.2457C24.5486 17.8865 25.3526 17.6213 26.1797 17.4558L26.6477 17.3622C27.6278 17.1662 28.6362 17.1574 29.6195 17.3362C30.1884 17.4396 30.7443 17.605 31.2772 17.8294L32.0569 18.1577C33.6901 18.8453 35.1946 19.8058 36.5058 20.9978L36.8689 21.3279L38.2623 22.9357C39.1743 23.988 39.9097 25.1811 40.4399 26.4687C40.8985 27.5824 41.1986 28.7549 41.3316 29.952L41.3581 30.1901C41.4904 31.3812 41.4742 32.5934 41.3123 33.7809C41.0533 35.6803 40.4254 37.5261 39.4674 39.1865L39.2196 39.616C38.2281 41.3346 36.9485 42.87 35.4368 44.155L35.201 44.3553C34.0453 45.3377 32.7585 46.1545 31.3776 46.7821C29.6527 47.5662 27.8045 48.0445 25.9158 48.1956L24.9702 48.2712C23.9531 48.3526 22.9315 48.3615 21.9132 48.2978L21.6315 48.2802C18.3417 48.0746 15.1509 47.0735 12.3334 45.3628C11.2175 44.6853 10.1694 43.9021 9.20353 43.0241L9.09956 42.9295C7.03061 41.0487 5.34242 38.7877 4.12682 36.2697L3.75311 35.4956C3.24105 34.4349 2.82093 33.3322 2.49735 32.1997C1.97163 30.3597 1.70492 28.4554 1.70492 26.5417V23.2459L1.91803 19.1967L1.10228 21.0457C-0.466307 24.6012 -1.24399 28.4549 -1.177 32.3405L-1.15363 33.6958C-1.09575 37.0528 -0.241695 40.348 1.33828 43.3105C3.11339 46.6388 5.79073 49.4621 9.00577 51.435C11.8848 53.2017 15.1798 54.2937 18.546 54.5742L20.6208 54.7471C20.9383 54.7735 21.2577 54.7669 21.5739 54.7274L26.2131 54.1475L29.4471 53.2851C31.5427 52.7263 33.5477 51.8712 35.4016 50.7456C37.5025 49.47 39.3833 47.863 40.9709 45.9867L41.4184 45.4579C42.6414 44.0124 43.6527 42.4003 44.4217 40.6701C45.3469 38.5884 45.909 36.3638 46.0837 34.0926L46.114 33.6989C46.2018 32.5575 46.1913 31.4106 46.0828 30.271L46.0522 29.9501C45.8979 28.3299 45.5205 26.7388 44.9306 25.222C44.5297 24.191 44.0328 23.2 43.4465 22.2619L43.1261 21.7494C42.5079 20.7601 41.7985 19.8309 41.0073 18.9737L40.8504 18.8038C40.0454 17.9316 39.1489 17.1485 38.1766 16.4679C36.3297 15.175 34.2383 14.2726 32.0306 13.8158L31.6162 13.7301C30.0145 13.3987 28.3686 13.3375 26.7467 13.5491L26.678 13.558C25.1005 13.7638 23.5686 14.2321 22.1457 14.9435C21.0261 15.5033 19.9851 16.2081 19.0496 17.0397L18.8384 17.2274C17.3786 18.525 16.2158 20.1221 15.4292 21.9099L15.2059 22.4172C14.5945 23.8069 14.2787 25.3086 14.2787 26.8269V26.8813C14.2787 28.6906 14.7359 30.4706 15.6078 32.0559L15.6336 32.1027C16.2869 33.2907 17.1649 34.3403 18.2187 35.1934L18.868 35.719C20.311 36.8872 22.1114 37.5246 23.968 37.5246C25.4371 37.5246 26.8786 37.1253 28.1383 36.3695L28.5018 36.1514C29.7833 35.3825 30.7827 34.2209 31.3517 32.839L31.5007 32.4771C31.8076 31.7318 31.9393 30.926 31.8857 30.1218Z" fill="url(#paint2_linear_30_59)"/>
</g>
<defs>
<linearGradient id="paint0_linear_30_59" x1="9.59016" y1="9.39344" x2="38.3607" y2="47.9672" gradientUnits="userSpaceOnUse">
<stop stop-color="#075CFF"/>
<stop offset="1" stop-color="#C215C5"/>
</linearGradient>
<linearGradient id="paint1_linear_30_59" x1="5.75405" y1="16.4262" x2="41.9836" y2="47.1148" gradientUnits="userSpaceOnUse">
<stop stop-color="#CB27CF"/>
<stop offset="1" stop-color="#2C0028" stop-opacity="0"/>
</linearGradient>
<linearGradient id="paint2_linear_30_59" x1="46.459" y1="27.9344" x2="1.06557" y2="30.0656" gradientUnits="userSpaceOnUse">
<stop stop-color="#CF27AA"/>
<stop offset="0.859375" stop-color="#D881F7"/>
</linearGradient>
</defs>
</svg>
