<svg width="40" height="40" viewBox="0 0 40 40" fill="none" xmlns="http://www.w3.org/2000/svg">
<circle cx="20" cy="20" r="20" fill="#8ED4B4"/>
<path d="M11.5174 24.9482V28.4826H15.0518L25.476 18.049L21.9416 14.5146L11.5174 24.9482ZM30 25.9943L25.9943 30L21.0933 25.099L22.7615 23.4307L23.7041 24.3732L26.032 22.0358L27.3704 23.3742L25.9943 24.7125L26.9934 25.655L28.3318 24.3355L30 25.9943ZM14.9199 18.8973L10 14.0057L14.0057 10L15.6645 11.6682L13.3365 14.0057L14.345 15.0047L16.6635 12.6673L18.0019 14.0057L16.6635 15.3346L17.606 16.2771L14.9199 18.8973ZM28.2092 15.2875C28.5768 14.9199 28.5768 14.345 28.2092 13.9585L26.0038 11.7908C25.655 11.4232 25.0424 11.4232 24.6748 11.7908L22.9406 13.5156L26.475 17.05L28.2092 15.2875Z" fill="#035731"/>
</svg>
