<svg width="289" height="67" viewBox="0 0 289 67" fill="none" xmlns="http://www.w3.org/2000/svg">
<path d="M1.97711e-06 48.6333C1.97711e-06 58.2602 8.06817 66.0838 17.9959 66.0838V61.7212C10.4976 61.7212 4.49898 55.9043 4.49898 48.6333H1.97711e-06ZM65.985 19.549C65.985 9.92207 57.9168 2.09839 47.9891 2.09839V6.46103C55.4874 6.46103 61.486 12.2779 61.486 19.549H65.985ZM44.9898 11.7544L58.7566 25.1332C68.4145 34.4983 68.4145 49.7094 58.7566 59.0745C49.0988 68.4397 33.4124 68.4397 23.7546 59.0745L2.54942 38.4538C1.07976 37.0868 1.07976 34.7891 2.54942 33.364C2.89769 33.0254 3.31141 32.7568 3.7669 32.5736C4.22238 32.3903 4.71068 32.2959 5.20382 32.2959C5.69696 32.2959 6.18526 32.3903 6.64075 32.5736C7.09623 32.7568 7.50996 33.0254 7.85822 33.364L21.1152 46.2193L23.2447 44.1543L3.62917 25.1332C2.15951 23.708 2.15951 21.4104 3.62917 19.9852C5.09884 18.5601 7.4983 18.5601 8.99796 19.9852L26.424 36.9995L28.4935 34.8764L7.88821 14.8373C6.41854 13.4122 6.41854 11.1145 7.88821 9.68939C9.35787 8.26426 11.7273 8.26426 13.197 9.68939L33.8623 29.7285L35.9918 27.6926L19.4956 11.7544C17.9959 10.3292 17.9959 8.03159 19.4956 6.60645C20.9952 5.18132 23.3347 5.18132 24.8044 6.60645L47.6592 28.7687C45.8696 31.0071 44.983 33.8013 45.1651 36.6281C45.3473 39.4548 46.5859 42.1203 48.6489 44.1252L50.7785 42.0602C49.0934 40.4242 48.147 38.2066 48.147 35.8943C48.147 33.5821 49.0934 31.3645 50.7785 29.7285L51.8282 28.7105L39.621 16.8732C38.1513 15.4481 38.1513 13.1504 39.621 11.7253C41.1207 10.3292 43.4901 10.3292 44.9898 11.7544Z" fill="url(#paint0_linear_30_80)"/>
<path d="M1.97711e-06 46.5349C1.97711e-06 56.1618 8.06817 63.9855 17.9959 63.9855V59.6228C10.4976 59.6228 4.49898 53.806 4.49898 46.5349H1.97711e-06ZM65.985 17.4506C65.985 7.82368 57.9168 0 47.9891 0V4.36264C55.4874 4.36264 61.486 10.1795 61.486 17.4506H65.985ZM44.9898 9.65599L58.7566 23.0348C68.4145 32.3999 68.4145 47.611 58.7566 56.9761C49.0988 66.3413 33.4124 66.3413 23.7546 56.9761L2.54942 36.3554C1.07976 34.9884 1.07976 32.6908 2.54942 31.2656C2.89769 30.9271 3.31141 30.6584 3.7669 30.4752C4.22238 30.2919 4.71068 30.1975 5.20382 30.1975C5.69696 30.1975 6.18526 30.2919 6.64075 30.4752C7.09623 30.6584 7.50996 30.9271 7.85822 31.2656L21.1152 44.1209L23.2447 42.0559L3.62917 23.0348C2.15951 21.6096 2.15951 19.312 3.62917 17.8868C5.09884 16.4617 7.4983 16.4617 8.99796 17.8868L26.424 34.9012L28.4935 32.778L7.88821 12.7389C6.41854 11.3138 6.41854 9.01613 7.88821 7.591C9.35787 6.16587 11.7273 6.16587 13.197 7.591L33.8623 27.6301L35.9918 25.5942L19.4956 9.65599C17.9959 8.23086 17.9959 5.9332 19.4956 4.50807C20.9952 3.08294 23.3347 3.08294 24.8044 4.50807L47.6592 26.6703C45.8696 28.9087 44.983 31.7029 45.1651 34.5297C45.3473 37.3565 46.5859 40.0219 48.6489 42.0268L50.7785 39.9618C49.0934 38.3258 48.147 36.1082 48.147 33.796C48.147 31.4837 49.0934 29.2661 50.7785 27.6301L51.8282 26.6121L39.621 14.7748C38.1513 13.3497 38.1513 11.052 39.621 9.6269C41.1207 8.23086 43.4901 8.23086 44.9898 9.65599Z" fill="url(#paint1_linear_30_80)"/>
<g filter="url(#filter0_d_30_80)">
<path d="M99.748 43L91.576 17.8H98.92L105.796 39.616H102.088L109.324 17.8H115.876L122.716 39.616H119.152L126.244 17.8H133.048L124.876 43H117.244L111.412 24.46H113.464L107.38 43H99.748ZM143.341 43.324C141.037 43.324 139.021 42.892 137.293 42.028C135.589 41.14 134.257 39.94 133.297 38.428C132.361 36.892 131.893 35.152 131.893 33.208C131.893 31.264 132.349 29.536 133.261 28.024C134.197 26.488 135.481 25.3 137.113 24.46C138.745 23.596 140.581 23.164 142.621 23.164C144.541 23.164 146.293 23.56 147.877 24.352C149.461 25.12 150.721 26.26 151.657 27.772C152.593 29.284 153.061 31.12 153.061 33.28C153.061 33.52 153.049 33.796 153.025 34.108C153.001 34.42 152.977 34.708 152.953 34.972H137.509V31.372H149.317L146.725 32.38C146.749 31.492 146.581 30.724 146.221 30.076C145.885 29.428 145.405 28.924 144.781 28.564C144.181 28.204 143.473 28.024 142.657 28.024C141.841 28.024 141.121 28.204 140.497 28.564C139.897 28.924 139.429 29.44 139.093 30.112C138.757 30.76 138.589 31.528 138.589 32.416V33.46C138.589 34.42 138.781 35.248 139.165 35.944C139.573 36.64 140.149 37.18 140.893 37.564C141.637 37.924 142.525 38.104 143.557 38.104C144.517 38.104 145.333 37.972 146.005 37.708C146.701 37.42 147.385 36.988 148.057 36.412L151.657 40.156C150.721 41.188 149.569 41.98 148.201 42.532C146.833 43.06 145.213 43.324 143.341 43.324ZM155.494 43V16.288H162.334V43H155.494ZM176.031 43.324C173.871 43.324 171.939 42.892 170.235 42.028C168.555 41.164 167.235 39.976 166.275 38.464C165.315 36.928 164.835 35.176 164.835 33.208C164.835 31.24 165.315 29.5 166.275 27.988C167.235 26.476 168.555 25.3 170.235 24.46C171.939 23.596 173.871 23.164 176.031 23.164C178.239 23.164 180.147 23.632 181.755 24.568C183.363 25.504 184.503 26.824 185.175 28.528L179.883 31.228C179.427 30.316 178.863 29.656 178.191 29.248C177.519 28.816 176.787 28.6 175.995 28.6C175.203 28.6 174.483 28.78 173.835 29.14C173.187 29.5 172.671 30.028 172.287 30.724C171.927 31.396 171.747 32.224 171.747 33.208C171.747 34.216 171.927 35.068 172.287 35.764C172.671 36.46 173.187 36.988 173.835 37.348C174.483 37.708 175.203 37.888 175.995 37.888C176.787 37.888 177.519 37.684 178.191 37.276C178.863 36.844 179.427 36.172 179.883 35.26L185.175 37.96C184.503 39.664 183.363 40.984 181.755 41.92C180.147 42.856 178.239 43.324 176.031 43.324ZM196.612 43.324C194.476 43.324 192.58 42.892 190.924 42.028C189.268 41.164 187.96 39.976 187 38.464C186.064 36.928 185.596 35.176 185.596 33.208C185.596 31.24 186.064 29.5 187 27.988C187.96 26.476 189.268 25.3 190.924 24.46C192.58 23.596 194.476 23.164 196.612 23.164C198.748 23.164 200.644 23.596 202.3 24.46C203.98 25.3 205.288 26.476 206.224 27.988C207.16 29.5 207.628 31.24 207.628 33.208C207.628 35.176 207.16 36.928 206.224 38.464C205.288 39.976 203.98 41.164 202.3 42.028C200.644 42.892 198.748 43.324 196.612 43.324ZM196.612 37.888C197.404 37.888 198.1 37.708 198.7 37.348C199.324 36.988 199.816 36.46 200.176 35.764C200.536 35.044 200.716 34.192 200.716 33.208C200.716 32.224 200.536 31.396 200.176 30.724C199.816 30.028 199.324 29.5 198.7 29.14C198.1 28.78 197.404 28.6 196.612 28.6C195.844 28.6 195.148 28.78 194.524 29.14C193.924 29.5 193.432 30.028 193.048 30.724C192.688 31.396 192.508 32.224 192.508 33.208C192.508 34.192 192.688 35.044 193.048 35.764C193.432 36.46 193.924 36.988 194.524 37.348C195.148 37.708 195.844 37.888 196.612 37.888ZM235.492 23.164C237.004 23.164 238.348 23.476 239.524 24.1C240.724 24.7 241.66 25.636 242.332 26.908C243.028 28.18 243.376 29.824 243.376 31.84V43H236.536V32.956C236.536 31.564 236.272 30.556 235.744 29.932C235.216 29.284 234.496 28.96 233.584 28.96C232.936 28.96 232.348 29.116 231.82 29.428C231.292 29.74 230.884 30.22 230.596 30.868C230.308 31.492 230.164 32.308 230.164 33.316V43H223.324V32.956C223.324 31.564 223.06 30.556 222.532 29.932C222.028 29.284 221.308 28.96 220.372 28.96C219.7 28.96 219.1 29.116 218.572 29.428C218.068 29.74 217.66 30.22 217.348 30.868C217.06 31.492 216.916 32.308 216.916 33.316V43H210.076V23.488H216.592V28.924L215.296 27.376C216.016 25.984 217 24.94 218.248 24.244C219.496 23.524 220.888 23.164 222.424 23.164C224.176 23.164 225.712 23.62 227.032 24.532C228.376 25.42 229.276 26.812 229.732 28.708L227.5 28.24C228.196 26.656 229.24 25.42 230.632 24.532C232.048 23.62 233.668 23.164 235.492 23.164ZM257.444 43.324C255.14 43.324 253.124 42.892 251.396 42.028C249.692 41.14 248.36 39.94 247.4 38.428C246.464 36.892 245.996 35.152 245.996 33.208C245.996 31.264 246.452 29.536 247.364 28.024C248.3 26.488 249.584 25.3 251.216 24.46C252.848 23.596 254.684 23.164 256.724 23.164C258.644 23.164 260.396 23.56 261.98 24.352C263.564 25.12 264.824 26.26 265.76 27.772C266.696 29.284 267.164 31.12 267.164 33.28C267.164 33.52 267.152 33.796 267.128 34.108C267.104 34.42 267.08 34.708 267.056 34.972H251.612V31.372H263.42L260.828 32.38C260.852 31.492 260.684 30.724 260.324 30.076C259.988 29.428 259.508 28.924 258.884 28.564C258.284 28.204 257.576 28.024 256.76 28.024C255.944 28.024 255.224 28.204 254.6 28.564C254 28.924 253.532 29.44 253.196 30.112C252.86 30.76 252.692 31.528 252.692 32.416V33.46C252.692 34.42 252.884 35.248 253.268 35.944C253.676 36.64 254.252 37.18 254.996 37.564C255.74 37.924 256.628 38.104 257.66 38.104C258.62 38.104 259.436 37.972 260.108 37.708C260.804 37.42 261.488 36.988 262.16 36.412L265.76 40.156C264.824 41.188 263.672 41.98 262.304 42.532C260.936 43.06 259.316 43.324 257.444 43.324Z" fill="white"/>
</g>
<defs>
<filter id="filter0_d_30_80" x="91.576" y="16.288" width="175.588" height="29.036" filterUnits="userSpaceOnUse" color-interpolation-filters="sRGB">
<feFlood flood-opacity="0" result="BackgroundImageFix"/>
<feColorMatrix in="SourceAlpha" type="matrix" values="0 0 0 0 0 0 0 0 0 0 0 0 0 0 0 0 0 0 127 0" result="hardAlpha"/>
<feOffset dy="2"/>
<feComposite in2="hardAlpha" operator="out"/>
<feColorMatrix type="matrix" values="0 0 0 0 0.752941 0 0 0 0 0.74902 0 0 0 0 0.737255 0 0 0 1 0"/>
<feBlend mode="normal" in2="BackgroundImageFix" result="effect1_dropShadow_30_80"/>
<feBlend mode="normal" in="SourceGraphic" in2="effect1_dropShadow_30_80" result="shape"/>
</filter>
<linearGradient id="paint0_linear_30_80" x1="3.2459" y1="57.7049" x2="65.9997" y2="57.1471" gradientUnits="userSpaceOnUse">
<stop stop-color="#988338"/>
<stop offset="0.364583" stop-color="#F2D983"/>
<stop offset="0.505208" stop-color="#C6AC52"/>
<stop offset="0.697917" stop-color="#A78F3A"/>
<stop offset="0.891482" stop-color="#F2D983"/>
<stop offset="1" stop-color="#A9913D"/>
</linearGradient>
<linearGradient id="paint1_linear_30_80" x1="-2.39945" y1="55.0663" x2="71.6614" y2="-8.44577" gradientUnits="userSpaceOnUse">
<stop stop-color="#FAC200"/>
<stop offset="0.453125" stop-color="#FFE485"/>
<stop offset="1" stop-color="#FFC600"/>
</linearGradient>
</defs>
</svg>
