<svg width="30" height="126" viewBox="0 0 30 126" fill="none" xmlns="http://www.w3.org/2000/svg">
<g filter="url(#filter0_i_35_2)">
<rect y="7.62939e-06" width="24" height="126" fill="#F9DBBF"/>
</g>
<rect x="9" y="7.62939e-06" width="3" height="123" fill="#FBD5B2"/>
<rect x="16" y="9.00001" width="3" height="111" fill="#FBD5B2"/>
<rect x="2" y="12" width="3" height="111" fill="#FBD5B2"/>
<g filter="url(#filter1_i_35_2)">
<path d="M3.50001 82C2.39544 82 1.50001 82.8954 1.50001 84C1.50001 85.1045 2.39544 86 3.50001 86L3.50001 82ZM26 15L24 15L24 19L26 19L26 15ZM3.50001 86L21.5 86L21.5 82L3.50001 82L3.50001 86ZM29.5 78L29.5 18.5L25.5 18.5L25.5 78L29.5 78ZM29.5 18.5C29.5 16.567 27.933 15 26 15L26 19C25.7239 19 25.5 18.7761 25.5 18.5L29.5 18.5ZM21.5 86C25.9183 86 29.5 82.4182 29.5 78L25.5 78C25.5 80.2091 23.7091 82 21.5 82L21.5 86Z" fill="url(#paint0_linear_35_2)"/>
</g>
<defs>
<filter id="filter0_i_35_2" x="0" y="0" width="24" height="126" filterUnits="userSpaceOnUse" color-interpolation-filters="sRGB">
<feFlood flood-opacity="0" result="BackgroundImageFix"/>
<feBlend mode="normal" in="SourceGraphic" in2="BackgroundImageFix" result="shape"/>
<feColorMatrix in="SourceAlpha" type="matrix" values="0 0 0 0 0 0 0 0 0 0 0 0 0 0 0 0 0 0 127 0" result="hardAlpha"/>
<feOffset/>
<feGaussianBlur stdDeviation="1"/>
<feComposite in2="hardAlpha" operator="arithmetic" k2="-1" k3="1"/>
<feColorMatrix type="matrix" values="0 0 0 0 0.602778 0 0 0 0 0.475609 0 0 0 0 0.421108 0 0 0 0.56 0"/>
<feBlend mode="normal" in2="shape" result="effect1_innerShadow_35_2"/>
</filter>
<filter id="filter1_i_35_2" x="0.5" y="15" width="29" height="71" filterUnits="userSpaceOnUse" color-interpolation-filters="sRGB">
<feFlood flood-opacity="0" result="BackgroundImageFix"/>
<feBlend mode="normal" in="SourceGraphic" in2="BackgroundImageFix" result="shape"/>
<feColorMatrix in="SourceAlpha" type="matrix" values="0 0 0 0 0 0 0 0 0 0 0 0 0 0 0 0 0 0 127 0" result="hardAlpha"/>
<feOffset dx="-1"/>
<feGaussianBlur stdDeviation="0.5"/>
<feComposite in2="hardAlpha" operator="arithmetic" k2="-1" k3="1"/>
<feColorMatrix type="matrix" values="0 0 0 0 0 0 0 0 0 0 0 0 0 0 0 0 0 0 0.2 0"/>
<feBlend mode="normal" in2="shape" result="effect1_innerShadow_35_2"/>
</filter>
<linearGradient id="paint0_linear_35_2" x1="-9.99999" y1="66" x2="45.5" y2="67" gradientUnits="userSpaceOnUse">
<stop stop-color="#B8B8B8"/>
<stop offset="0.114583" stop-color="white"/>
<stop offset="0.265625" stop-color="#C5C0C0"/>
<stop offset="0.595511" stop-color="#E4E4E4"/>
<stop offset="1" stop-color="#8B8B8B"/>
</linearGradient>
</defs>
</svg>
