<svg width="22" height="90" viewBox="0 0 22 90" fill="none" xmlns="http://www.w3.org/2000/svg">
<g filter="url(#filter0_i_50_2)">
<rect y="3.05176e-05" width="17.4545" height="90" fill="#F9DBBF"/>
</g>
<rect x="6.54541" y="3.05176e-05" width="2.18182" height="87.8571" fill="#FBD5B2"/>
<rect x="11.6364" y="6.42859" width="2.18182" height="79.2857" fill="#FBD5B2"/>
<rect x="1.45459" y="8.57144" width="2.18182" height="79.2857" fill="#FBD5B2"/>
<g filter="url(#filter1_i_50_2)">
<path d="M2.54542 58C1.44085 58 0.545419 58.8954 0.545419 60C0.545419 61.1046 1.44085 62 2.54542 62L2.54542 58ZM18.909 10.1429L16.909 10.1429L16.909 14.1429L18.909 14.1429L18.909 10.1429ZM2.54542 62L14 62L14 58L2.54542 58L2.54542 62ZM22 54L21.9999 13.2338L17.9999 13.2338L18 54L22 54ZM21.9999 13.2338C21.9999 11.5267 20.6161 10.1429 18.909 10.1429L18.909 14.1429C18.407 14.1429 17.9999 13.7359 17.9999 13.2338L21.9999 13.2338ZM14 62C18.4182 62 22 58.4183 22 54L18 54C18 56.2091 16.2091 58 14 58L14 62Z" fill="url(#paint0_linear_50_2)"/>
</g>
<defs>
<filter id="filter0_i_50_2" x="0" y="3.05176e-05" width="17.4546" height="90" filterUnits="userSpaceOnUse" color-interpolation-filters="sRGB">
<feFlood flood-opacity="0" result="BackgroundImageFix"/>
<feBlend mode="normal" in="SourceGraphic" in2="BackgroundImageFix" result="shape"/>
<feColorMatrix in="SourceAlpha" type="matrix" values="0 0 0 0 0 0 0 0 0 0 0 0 0 0 0 0 0 0 127 0" result="hardAlpha"/>
<feOffset/>
<feGaussianBlur stdDeviation="1"/>
<feComposite in2="hardAlpha" operator="arithmetic" k2="-1" k3="1"/>
<feColorMatrix type="matrix" values="0 0 0 0 0.602778 0 0 0 0 0.475609 0 0 0 0 0.421108 0 0 0 0.56 0"/>
<feBlend mode="normal" in2="shape" result="effect1_innerShadow_50_2"/>
</filter>
<filter id="filter1_i_50_2" x="-0.45459" y="10.1429" width="22.4546" height="51.8571" filterUnits="userSpaceOnUse" color-interpolation-filters="sRGB">
<feFlood flood-opacity="0" result="BackgroundImageFix"/>
<feBlend mode="normal" in="SourceGraphic" in2="BackgroundImageFix" result="shape"/>
<feColorMatrix in="SourceAlpha" type="matrix" values="0 0 0 0 0 0 0 0 0 0 0 0 0 0 0 0 0 0 127 0" result="hardAlpha"/>
<feOffset dx="-1"/>
<feGaussianBlur stdDeviation="0.5"/>
<feComposite in2="hardAlpha" operator="arithmetic" k2="-1" k3="1"/>
<feColorMatrix type="matrix" values="0 0 0 0 0 0 0 0 0 0 0 0 0 0 0 0 0 0 0.2 0"/>
<feBlend mode="normal" in2="shape" result="effect1_innerShadow_50_2"/>
</filter>
<linearGradient id="paint0_linear_50_2" x1="-7.27276" y1="47.1429" x2="33.0904" y2="47.8834" gradientUnits="userSpaceOnUse">
<stop stop-color="#B8B8B8"/>
<stop offset="0.114583" stop-color="white"/>
<stop offset="0.265625" stop-color="#C5C0C0"/>
<stop offset="0.595511" stop-color="#E4E4E4"/>
<stop offset="1" stop-color="#8B8B8B"/>
</linearGradient>
</defs>
</svg>
