<svg width="262" height="79" viewBox="0 0 262 79" fill="none" xmlns="http://www.w3.org/2000/svg">
<circle cx="39.1494" cy="39.1494" r="39.1494" fill="#D1E6FE"/>
<rect x="60.2299" y="24.092" width="36.1379" height="42.1609" rx="2" transform="rotate(90 60.2299 24.092)" fill="url(#paint0_linear_1_123)"/>
<mask id="mask0_1_123" style="mask-type:alpha" maskUnits="userSpaceOnUse" x="18" y="23" width="43" height="35">
<rect x="60.2299" y="23.0881" width="34.1303" height="42.1609" rx="2" transform="rotate(90 60.2299 23.0881)" fill="#172073"/>
</mask>
<g mask="url(#mask0_1_123)">
<rect x="60.2299" y="23.0881" width="34.1303" height="42.1609" rx="2" transform="rotate(90 60.2299 23.0881)" fill="#0066FF"/>
<path d="M31.0712 31.0264C31.8716 30.0394 33.3774 30.0394 34.1779 31.0264L55.6263 57.472C56.6866 58.7793 55.7562 60.7318 54.073 60.7318H11.1761C9.49283 60.7318 8.56245 58.7793 9.62274 57.472L31.0712 31.0264Z" fill="url(#paint1_linear_1_123)"/>
<path d="M50.1479 42.0514C50.9482 41.071 52.4464 41.071 53.2467 42.0514L66.854 58.7219C67.9203 60.0282 66.9908 61.9866 65.3047 61.9866H38.09C36.4038 61.9866 35.4743 60.0282 36.5406 58.7219L50.1479 42.0514Z" fill="url(#paint2_linear_1_123)"/>
</g>
<path d="M118.436 51.1035H115.588V32.9275L108.324 42.8475L101.092 32.9275V51.1035H98.244V28.3195H101.252L108.324 38.0475L115.396 28.3195H118.436V51.1035ZM133.814 38.3355C135.286 39.8075 136.086 41.7275 136.086 43.7755C136.086 45.8235 135.286 47.7435 133.814 49.2155C132.374 50.6555 130.454 51.4555 128.406 51.4555C126.358 51.4555 124.438 50.6555 122.966 49.2155C121.526 47.7435 120.726 45.8235 120.726 43.7755C120.726 41.7275 121.526 39.8075 122.966 38.3355C124.438 36.8955 126.358 36.1275 128.406 36.1275C130.454 36.1275 132.374 36.8955 133.814 38.3355ZM128.406 48.7035C131.126 48.7035 133.334 46.4955 133.334 43.7755C133.334 41.0555 131.126 38.8795 128.406 38.8795C125.686 38.8795 123.478 41.0555 123.478 43.7755C123.478 46.4955 125.686 48.7035 128.406 48.7035ZM160.562 38.2075C161.906 39.5515 162.642 41.3115 162.642 43.2315V51.1035H159.89V43.2315C159.89 40.8315 157.938 38.8475 155.57 38.8475C153.17 38.8475 151.218 40.8315 151.218 43.2315V51.1035H148.466V43.2315C148.466 40.8315 146.546 38.8475 144.146 38.8475C141.778 38.8475 139.826 40.8315 139.826 43.2315V51.1035H137.074V36.4475H139.826V37.8555C141.074 36.8955 142.578 36.1595 144.146 36.1595C146.034 36.1595 147.826 36.9915 149.17 38.3355C149.426 38.5915 149.65 38.8475 149.842 39.1355C150.066 38.8475 150.29 38.5915 150.546 38.3355C151.89 36.9915 153.682 36.1595 155.57 36.1595C157.458 36.1595 159.218 36.8635 160.562 38.2075ZM177.224 42.1115C177.448 43.4235 177.416 44.1595 177.384 44.4475H166.088V44.5115C166.408 46.9435 168.232 48.7675 170.344 48.7995C171.656 48.7355 173 48.1915 173.928 47.2635L176.232 48.6395C175.656 49.2795 175.016 49.8235 174.28 50.2715C173.16 50.9435 171.784 51.2955 170.408 51.3595C168.488 51.3595 166.728 50.5595 165.448 49.1195C164.296 47.8715 163.592 46.2715 163.464 44.5115C163.432 44.2875 163.432 44.0635 163.432 43.8395C163.432 43.2635 163.496 42.6875 163.624 42.1115C163.912 40.7675 164.552 39.5515 165.448 38.5595C166.728 37.1515 168.52 36.3515 170.408 36.3515C172.328 36.3515 174.088 37.1515 175.4 38.5595C176.296 39.5515 176.968 40.7675 177.224 42.1115ZM166.312 42.1435H174.504L174.472 42.0795C173.832 40.1915 172.2 38.9115 170.408 38.9115C168.648 38.9115 167.016 40.1915 166.344 42.0795L166.312 42.1435ZM190.537 38.2075C191.849 39.5515 192.585 41.3115 192.585 43.2315V51.1035H189.833V43.2315C189.833 40.8315 187.913 38.8475 185.513 38.8475C183.145 38.8475 181.193 40.8315 181.193 43.2315V51.1035H178.441V36.4475H181.193V37.8555C182.441 36.8955 183.945 36.1595 185.513 36.1595C187.401 36.1595 189.193 36.8635 190.537 38.2075ZM200.042 51.1035C197.354 51.1035 195.178 48.9595 195.178 46.2395V39.0715H193.002V36.4475H195.178V30.7835H197.93V36.4475H202.442V39.0715H197.93V46.1755C197.93 47.3595 198.954 48.4795 200.106 48.4795H202.57L203.274 51.1035H200.042Z" fill="black"/>
<path d="M56.2146 17.0651L58.9829 24.3352L66.2529 27.1035L58.9829 29.8717L56.2146 37.1418L53.4463 29.8717L46.1763 27.1035L53.4463 24.3352L56.2146 17.0651Z" fill="white"/>
<defs>
<linearGradient id="paint0_linear_1_123" x1="78.2989" y1="24.092" x2="78.2989" y2="66.2529" gradientUnits="userSpaceOnUse">
<stop stop-color="#0066FF"/>
<stop offset="0.078125" stop-color="#75ACFF"/>
<stop offset="0.223958" stop-color="#0049B6"/>
<stop offset="0.822917" stop-color="#0050C8"/>
<stop offset="0.916667" stop-color="#81A4FF"/>
<stop offset="1" stop-color="#0066FF"/>
</linearGradient>
<linearGradient id="paint1_linear_1_123" x1="12.5479" y1="23.59" x2="52.7011" y2="55.7126" gradientUnits="userSpaceOnUse">
<stop stop-color="#DED2FF"/>
<stop offset="1" stop-color="#81E8FF"/>
</linearGradient>
<linearGradient id="paint2_linear_1_123" x1="45.1724" y1="44.1686" x2="61.7356" y2="59.728" gradientUnits="userSpaceOnUse">
<stop offset="0.0625" stop-color="#D2FFFF"/>
<stop offset="1" stop-color="#71CCFF"/>
</linearGradient>
</defs>
</svg>
