<svg width="345" height="78" viewBox="0 0 345 78" fill="none" xmlns="http://www.w3.org/2000/svg">
<g filter="url(#filter0_d_70_12)">
<path d="M131.43 12.8281L129.273 47.2344L118.586 47.7031L118.68 29.5625L113.852 44.1875H109.727L106.023 31.1094L105.977 46.2969L95.1484 46.625L95.6172 14.2344L107.664 13.7656L112.445 29.2812L118.82 12.8281H131.43ZM164.697 44.9844L153.072 46.4844L151.666 41.1875H146.322L145.15 46.4844L133.197 45.3125L142.525 14.0938L155.556 13.4375L164.697 44.9844ZM150.822 34.0156L149.041 25.8594L147.306 34.0156H150.822ZM194.144 28.3906C194.144 30.5781 193.863 32.5547 193.3 34.3203C192.738 36.0703 191.948 37.6328 190.933 39.0078C189.933 40.3672 188.738 41.5391 187.347 42.5234C185.956 43.5078 184.433 44.3203 182.777 44.9609C181.12 45.5859 179.355 46.0547 177.48 46.3672C175.62 46.6641 173.706 46.8125 171.738 46.8125C171.003 46.8125 170.284 46.7969 169.581 46.7656C168.878 46.7188 168.159 46.6562 167.425 46.5781L168.081 15.125C169.8 14.5781 171.566 14.1953 173.378 13.9766C175.206 13.7422 177.019 13.625 178.816 13.625C181.05 13.625 183.105 13.9609 184.98 14.6328C186.855 15.3047 188.472 16.2734 189.831 17.5391C191.191 18.8047 192.245 20.3516 192.995 22.1797C193.761 24.0078 194.144 26.0781 194.144 28.3906ZM184.534 29.8906C184.55 29.0469 184.456 28.2344 184.253 27.4531C184.066 26.6719 183.745 25.9844 183.292 25.3906C182.855 24.7812 182.292 24.2969 181.605 23.9375C180.917 23.5625 180.097 23.3594 179.144 23.3281L178.206 37.8594C179.144 37.7188 179.995 37.4141 180.761 36.9453C181.527 36.4609 182.183 35.875 182.73 35.1875C183.292 34.4844 183.722 33.7109 184.019 32.8672C184.331 32.0078 184.503 31.125 184.534 30.2188V29.8906ZM230.35 33.6406L229.366 44.0469L209.631 45.5938C209.725 40.1406 209.827 34.7188 209.936 29.3281C210.061 23.9375 210.209 18.5156 210.381 13.0625H222.569C222.209 16.4844 221.866 19.9062 221.537 23.3281C221.209 26.7344 220.975 30.1719 220.834 33.6406C221.569 33.6719 222.295 33.6875 223.014 33.6875C223.733 33.6875 224.459 33.6875 225.194 33.6875C226.069 33.6875 226.928 33.6797 227.772 33.6641C228.616 33.6484 229.475 33.6406 230.35 33.6406ZM246.508 14L243.93 45.9219L234.039 46.4375V14.6562L246.508 14ZM277.83 38.6562C277.83 39.9531 277.587 41.0703 277.103 42.0078C276.634 42.9453 276.002 43.7422 275.205 44.3984C274.408 45.0547 273.486 45.5938 272.439 46.0156C271.408 46.4219 270.33 46.7422 269.205 46.9766C268.08 47.2109 266.947 47.3672 265.806 47.4453C264.681 47.5234 263.627 47.5625 262.642 47.5625C261.673 47.5625 260.666 47.5234 259.619 47.4453C258.587 47.3828 257.556 47.2656 256.525 47.0938C255.494 46.9219 254.478 46.6953 253.478 46.4141C252.478 46.1172 251.533 45.75 250.642 45.3125L250.595 15.125C251.47 14.7656 252.4 14.4453 253.384 14.1641C254.369 13.8672 255.369 13.625 256.384 13.4375C257.416 13.2344 258.439 13.0859 259.455 12.9922C260.47 12.8828 261.455 12.8281 262.408 12.8281C263.517 12.8281 264.634 12.8984 265.759 13.0391C266.9 13.1797 267.994 13.4141 269.041 13.7422C270.087 14.0703 271.064 14.5 271.97 15.0312C272.877 15.5469 273.666 16.1875 274.337 16.9531C275.025 17.7188 275.556 18.6094 275.931 19.625C276.322 20.6406 276.517 21.8125 276.517 23.1406C276.517 24.0156 276.392 24.8359 276.142 25.6016C275.892 26.3672 275.533 27.0547 275.064 27.6641C274.595 28.2734 274.025 28.7969 273.353 29.2344C272.681 29.6562 271.923 29.9688 271.08 30.1719C272.095 30.4375 273.017 30.8281 273.845 31.3438C274.689 31.8594 275.4 32.4844 275.978 33.2188C276.572 33.9531 277.025 34.7812 277.337 35.7031C277.666 36.625 277.83 37.6094 277.83 38.6562ZM265.923 25.2969C265.923 24.8438 265.83 24.4609 265.642 24.1484C265.455 23.8203 265.22 23.5547 264.939 23.3516C264.673 23.1484 264.377 23 264.048 22.9062C263.736 22.8125 263.455 22.7656 263.205 22.7656C262.892 22.7656 262.587 22.8125 262.291 22.9062C261.994 23 261.705 23.1094 261.423 23.2344L261.283 28.4375C261.642 28.4375 262.087 28.4062 262.619 28.3438C263.15 28.2812 263.658 28.1484 264.142 27.9453C264.642 27.7266 265.064 27.4141 265.408 27.0078C265.752 26.5859 265.923 26.0156 265.923 25.2969ZM262.595 32.9375C262.142 32.9375 261.705 32.9844 261.283 33.0781L261.189 38.4219C261.423 38.4688 261.65 38.5156 261.869 38.5625C262.103 38.5938 262.33 38.6094 262.548 38.6094C262.877 38.6094 263.236 38.5781 263.627 38.5156C264.017 38.4375 264.384 38.2969 264.728 38.0938C265.072 37.875 265.353 37.5859 265.572 37.2266C265.806 36.8672 265.923 36.3906 265.923 35.7969C265.923 35.2031 265.806 34.7188 265.572 34.3438C265.353 33.9688 265.08 33.6797 264.752 33.4766C264.423 33.2578 264.064 33.1172 263.673 33.0547C263.283 32.9766 262.923 32.9375 262.595 32.9375ZM305.214 34.5312C305.214 36.6719 304.839 38.5469 304.089 40.1562C303.355 41.75 302.339 43.0781 301.042 44.1406C299.761 45.2031 298.253 46 296.519 46.5312C294.8 47.0625 292.948 47.3281 290.964 47.3281C290.198 47.3281 289.355 47.2266 288.433 47.0234C287.527 46.8203 286.605 46.5703 285.667 46.2734C284.73 45.9609 283.823 45.6328 282.948 45.2891C282.089 44.9297 281.323 44.5938 280.652 44.2812L281.683 34.625C283.011 35.4219 284.48 36.0312 286.089 36.4531C287.714 36.8594 289.308 37.0625 290.87 37.0625C291.167 37.0625 291.527 37.0547 291.948 37.0391C292.37 37.0078 292.769 36.9375 293.144 36.8281C293.534 36.7031 293.863 36.5234 294.128 36.2891C294.394 36.0547 294.527 35.7188 294.527 35.2812C294.527 34.9844 294.433 34.7344 294.245 34.5312C294.058 34.3125 293.816 34.1406 293.519 34.0156C293.222 33.875 292.886 33.7734 292.511 33.7109C292.136 33.6328 291.769 33.5781 291.409 33.5469C291.05 33.5156 290.714 33.5 290.402 33.5C290.089 33.5 289.839 33.5 289.652 33.5C288.308 33.5 287.081 33.2656 285.972 32.7969C284.878 32.3281 283.933 31.6797 283.136 30.8516C282.355 30.0078 281.745 29.0156 281.308 27.875C280.87 26.7188 280.652 25.4688 280.652 24.125C280.652 22.2812 281.019 20.6328 281.753 19.1797C282.503 17.7109 283.495 16.4688 284.73 15.4531C285.98 14.4219 287.409 13.6328 289.019 13.0859C290.628 12.5391 292.292 12.2656 294.011 12.2656C294.777 12.2656 295.566 12.2969 296.378 12.3594C297.191 12.4062 297.995 12.5 298.792 12.6406C299.605 12.7812 300.394 12.9609 301.159 13.1797C301.925 13.3984 302.652 13.6719 303.339 14L302.448 23.5156C301.386 23.1562 300.269 22.8594 299.097 22.625C297.941 22.375 296.808 22.25 295.698 22.25C295.495 22.25 295.23 22.2578 294.902 22.2734C294.589 22.2734 294.253 22.2969 293.894 22.3438C293.55 22.375 293.198 22.4297 292.839 22.5078C292.48 22.5859 292.159 22.6953 291.878 22.8359C291.597 22.9609 291.37 23.1328 291.198 23.3516C291.027 23.5703 290.948 23.8281 290.964 24.125C290.98 24.4688 291.105 24.75 291.339 24.9688C291.589 25.1719 291.902 25.3359 292.277 25.4609C292.667 25.5703 293.089 25.6484 293.542 25.6953C294.011 25.7422 294.472 25.7734 294.925 25.7891C295.378 25.7891 295.8 25.7891 296.191 25.7891C296.581 25.7734 296.902 25.7812 297.152 25.8125C298.402 25.8906 299.527 26.1562 300.527 26.6094C301.527 27.0625 302.37 27.6641 303.058 28.4141C303.761 29.1641 304.292 30.0625 304.652 31.1094C305.027 32.1406 305.214 33.2812 305.214 34.5312ZM106.48 57.3086L102.906 70.5117L98.0625 70.7852L93.668 58.0312L98.2969 57.6016L100.172 65.0234L101.988 57.0156L106.48 57.3086ZM117.246 61.8008C117.246 62.3216 117.152 62.8197 116.963 63.2949C116.774 63.7637 116.523 64.2064 116.211 64.623C115.905 65.0332 115.553 65.4141 115.156 65.7656C114.766 66.1107 114.368 66.4232 113.965 66.7031H117.051L116.816 70.7656L107.676 70.4531V66.8984C108.021 66.7812 108.382 66.6413 108.76 66.4785C109.144 66.3092 109.518 66.1172 109.883 65.9023C110.254 65.6875 110.602 65.4466 110.928 65.1797C111.26 64.9128 111.549 64.623 111.797 64.3105C112.051 63.9915 112.249 63.6465 112.393 63.2754C112.542 62.9043 112.617 62.5039 112.617 62.0742C112.617 61.8268 112.572 61.6087 112.48 61.4199C112.396 61.2311 112.275 61.0749 112.119 60.9512C111.963 60.821 111.781 60.7266 111.572 60.668C111.37 60.6029 111.152 60.5703 110.918 60.5703C110.723 60.5703 110.524 60.5931 110.322 60.6387C110.12 60.6777 109.922 60.7363 109.727 60.8145C109.531 60.8926 109.346 60.9902 109.17 61.1074C109.001 61.2181 108.848 61.3451 108.711 61.4883L107.852 57.6602C108.092 57.4193 108.369 57.2174 108.682 57.0547C108.994 56.8919 109.323 56.7617 109.668 56.6641C110.013 56.5599 110.365 56.485 110.723 56.4395C111.081 56.3939 111.432 56.3711 111.777 56.3711C112.546 56.3711 113.262 56.5111 113.926 56.791C114.59 57.0645 115.166 57.4453 115.654 57.9336C116.149 58.4154 116.536 58.9883 116.816 59.6523C117.103 60.3164 117.246 61.0326 117.246 61.8008ZM122.875 68.9883C122.875 69.2747 122.82 69.5417 122.709 69.7891C122.598 70.0365 122.449 70.2546 122.26 70.4434C122.077 70.6257 121.863 70.7721 121.615 70.8828C121.368 70.987 121.104 71.0391 120.824 71.0391C120.538 71.0391 120.271 70.987 120.023 70.8828C119.776 70.7721 119.558 70.6257 119.369 70.4434C119.187 70.2546 119.04 70.0365 118.93 69.7891C118.826 69.5417 118.773 69.2747 118.773 68.9883C118.773 68.7083 118.826 68.4414 118.93 68.1875C119.04 67.9336 119.187 67.7155 119.369 67.5332C119.558 67.3444 119.776 67.1947 120.023 67.084C120.271 66.9733 120.538 66.918 120.824 66.918C121.104 66.918 121.368 66.9733 121.615 67.084C121.863 67.1947 122.077 67.3444 122.26 67.5332C122.449 67.7155 122.598 67.9336 122.709 68.1875C122.82 68.4414 122.875 68.7083 122.875 68.9883ZM136.15 64.0078C136.15 64.5807 136.085 65.1504 135.955 65.7168C135.831 66.2832 135.649 66.8268 135.408 67.3477C135.167 67.8685 134.871 68.3535 134.52 68.8027C134.174 69.252 133.777 69.6426 133.328 69.9746C132.879 70.3066 132.384 70.5671 131.844 70.7559C131.31 70.9447 130.734 71.0391 130.115 71.0391C129.49 71.0391 128.908 70.9447 128.367 70.7559C127.827 70.5671 127.332 70.3066 126.883 69.9746C126.44 69.6426 126.043 69.252 125.691 68.8027C125.34 68.3535 125.044 67.8685 124.803 67.3477C124.562 66.8268 124.376 66.2832 124.246 65.7168C124.122 65.1439 124.061 64.5742 124.061 64.0078C124.061 63.4414 124.122 62.8717 124.246 62.2988C124.376 61.7259 124.562 61.179 124.803 60.6582C125.044 60.1374 125.34 59.6523 125.691 59.2031C126.043 58.7474 126.44 58.3535 126.883 58.0215C127.332 57.6895 127.827 57.429 128.367 57.2402C128.914 57.0514 129.497 56.957 130.115 56.957C130.734 56.957 131.31 57.0514 131.844 57.2402C132.384 57.429 132.879 57.6895 133.328 58.0215C133.777 58.3535 134.174 58.7474 134.52 59.2031C134.871 59.6523 135.167 60.1374 135.408 60.6582C135.649 61.179 135.831 61.7259 135.955 62.2988C136.085 62.8717 136.15 63.4414 136.15 64.0078ZM132.029 64.3008C132.029 64.0143 131.99 63.6953 131.912 63.3438C131.834 62.9922 131.714 62.6634 131.551 62.3574C131.388 62.0514 131.18 61.7943 130.926 61.5859C130.672 61.3776 130.369 61.2734 130.018 61.2734C129.66 61.2734 129.354 61.3776 129.1 61.5859C128.846 61.7943 128.634 62.0514 128.465 62.3574C128.302 62.6634 128.182 62.9922 128.104 63.3438C128.025 63.6953 127.986 64.0143 127.986 64.3008C127.986 64.5872 128.025 64.9062 128.104 65.2578C128.182 65.6094 128.302 65.9382 128.465 66.2441C128.634 66.5501 128.846 66.8073 129.1 67.0156C129.354 67.224 129.66 67.3281 130.018 67.3281C130.369 67.3281 130.672 67.224 130.926 67.0156C131.18 66.8073 131.388 66.5501 131.551 66.2441C131.714 65.9382 131.834 65.6094 131.912 65.2578C131.99 64.9062 132.029 64.5872 132.029 64.3008Z" fill="#0C1E3F"/>
</g>
<circle cx="39" cy="39" r="39" fill="url(#paint0_linear_70_12)"/>
<g filter="url(#filter1_d_70_12)">
<rect x="38.2469" y="15" width="30" height="28" rx="4" transform="rotate(15 38.2469 15)" fill="white"/>
</g>
<path d="M53.8673 35.4312L52.3489 39.5132L44.2396 38.0076C44.8654 35.823 45.491 33.6518 46.1164 31.4941C46.748 29.338 47.3925 27.1719 48.0497 24.9957L52.9548 26.31C52.4411 27.6485 51.9338 28.9886 51.4327 30.3304C50.9333 31.6659 50.4683 33.0241 50.0376 34.405C50.3298 34.4968 50.6205 34.5814 50.9098 34.659C51.1991 34.7365 51.4915 34.8148 51.7871 34.894C52.1392 34.9884 52.4859 35.0779 52.8272 35.1626C53.1685 35.2473 53.5152 35.3368 53.8673 35.4312Z" fill="#2E2C2C"/>
<g filter="url(#filter2_dd_70_12)">
<rect x="10" y="34.7646" width="30" height="28" rx="4" transform="rotate(-15 10 34.7646)" fill="white"/>
</g>
<path d="M33.6785 34.9031L36.912 48.8985L32.7002 50.3576L30.5788 43.1027L30.3913 49.5172L28.7441 50.008L25.7091 45.2265L27.4978 51.2966L23.213 52.7162L19.5455 39.7265L24.3002 38.1057L28.0558 43.7323L28.6434 36.4037L33.6785 34.9031Z" fill="#2E2C2C"/>
<defs>
<filter id="filter0_d_70_12" x="90.668" y="12.2656" width="214.546" height="62.7734" filterUnits="userSpaceOnUse" color-interpolation-filters="sRGB">
<feFlood flood-opacity="0" result="BackgroundImageFix"/>
<feColorMatrix in="SourceAlpha" type="matrix" values="0 0 0 0 0 0 0 0 0 0 0 0 0 0 0 0 0 0 127 0" result="hardAlpha"/>
<feOffset dx="-3" dy="4"/>
<feComposite in2="hardAlpha" operator="out"/>
<feColorMatrix type="matrix" values="0 0 0 0 1 0 0 0 0 0.72 0 0 0 0 0 0 0 0 1 0"/>
<feBlend mode="normal" in2="BackgroundImageFix" result="effect1_dropShadow_70_12"/>
<feBlend mode="normal" in="SourceGraphic" in2="effect1_dropShadow_70_12" result="shape"/>
</filter>
<filter id="filter1_d_70_12" x="30.898" y="15.898" width="35.4287" height="36.0145" filterUnits="userSpaceOnUse" color-interpolation-filters="sRGB">
<feFlood flood-opacity="0" result="BackgroundImageFix"/>
<feColorMatrix in="SourceAlpha" type="matrix" values="0 0 0 0 0 0 0 0 0 0 0 0 0 0 0 0 0 0 127 0" result="hardAlpha"/>
<feOffset dx="-1" dy="3"/>
<feComposite in2="hardAlpha" operator="out"/>
<feColorMatrix type="matrix" values="0 0 0 0 1 0 0 0 0 0.943611 0 0 0 0 0.902778 0 0 0 0.75 0"/>
<feBlend mode="normal" in2="BackgroundImageFix" result="effect1_dropShadow_70_12"/>
<feBlend mode="normal" in="SourceGraphic" in2="effect1_dropShadow_70_12" result="shape"/>
</filter>
<filter id="filter2_dd_70_12" x="10.898" y="25.898" width="39.4287" height="38.0145" filterUnits="userSpaceOnUse" color-interpolation-filters="sRGB">
<feFlood flood-opacity="0" result="BackgroundImageFix"/>
<feColorMatrix in="SourceAlpha" type="matrix" values="0 0 0 0 0 0 0 0 0 0 0 0 0 0 0 0 0 0 127 0" result="hardAlpha"/>
<feOffset dx="1" dy="3"/>
<feComposite in2="hardAlpha" operator="out"/>
<feColorMatrix type="matrix" values="0 0 0 0 1 0 0 0 0 0.943611 0 0 0 0 0.902778 0 0 0 0.75 0"/>
<feBlend mode="normal" in2="BackgroundImageFix" result="effect1_dropShadow_70_12"/>
<feColorMatrix in="SourceAlpha" type="matrix" values="0 0 0 0 0 0 0 0 0 0 0 0 0 0 0 0 0 0 127 0" result="hardAlpha"/>
<feMorphology radius="3" operator="erode" in="SourceAlpha" result="effect2_dropShadow_70_12"/>
<feOffset dx="4" dy="-1"/>
<feGaussianBlur stdDeviation="2"/>
<feComposite in2="hardAlpha" operator="out"/>
<feColorMatrix type="matrix" values="0 0 0 0 0 0 0 0 0 0 0 0 0 0 0 0 0 0 0.25 0"/>
<feBlend mode="normal" in2="effect1_dropShadow_70_12" result="effect2_dropShadow_70_12"/>
<feBlend mode="normal" in="SourceGraphic" in2="effect2_dropShadow_70_12" result="shape"/>
</filter>
<linearGradient id="paint0_linear_70_12" x1="39" y1="0" x2="39" y2="78" gradientUnits="userSpaceOnUse">
<stop stop-color="#FFD600"/>
<stop offset="1" stop-color="#FFB800"/>
</linearGradient>
</defs>
</svg>
